<?xml version="1.0" standalone="no"?>
<!DOCTYPE svg PUBLIC "-//W3C//DTD SVG 1.1//EN" "http://www.w3.org/Graphics/SVG/1.1/DTD/svg11.dtd" >
<svg xmlns="http://www.w3.org/2000/svg">
<metadata>
This is a custom SVG webfont generated by Font Squirrel.
Copyright   : Copyright c 2002 2006 Parachute wwwparachutegr  All rights reserved
Designer    : Panos Vassiliou
Foundry     : Parachute Worldwide
Foundry URL : httpwwwparachutegr
</metadata>
<defs>
<font id="EmbracoBeauSansBold" horiz-adv-x="1337" >
<font-face units-per-em="2048" ascent="1536" descent="-512" />
<missing-glyph horiz-adv-x="587" />
<glyph unicode=" "  horiz-adv-x="587" />
<glyph unicode="&#x09;" horiz-adv-x="587" />
<glyph unicode="&#xa0;" horiz-adv-x="587" />
<glyph unicode="!" horiz-adv-x="616" d="M125 158q0 73 54.5 125.5t129.5 52.5q78 0 131.5 -51.5t53.5 -126.5q0 -74 -53.5 -126t-131.5 -52q-77 0 -130.5 51.5t-53.5 126.5zM152 1391q-2 22 8.5 32.5t38.5 10.5h217q30 0 39.5 -11.5t7.5 -31.5l-47 -887q0 -24 -10.5 -31.5t-36.5 -7.5h-123q-28 0 -37.5 7.5 t-11.5 29.5z" />
<glyph unicode="&#x22;" horiz-adv-x="983" d="M139 1391q-3 22 8.5 33.5t38.5 11.5h209q31 0 40 -11.5t7 -33.5l-49 -537q-1 -24 -11 -30.5t-36 -6.5h-108q-28 0 -38.5 7t-11.5 28zM537 1391q-2 23 9.5 34t39.5 11h209q31 0 40 -11.5t7 -33.5l-49 -537q-1 -24 -11.5 -30.5t-38.5 -6.5h-108q-27 0 -37.5 7t-11.5 28z " />
<glyph unicode="#" d="M119 289.5q-5 6.5 0 23.5l22 115q3 17 10 24t27 7h156l59 289h-157q-20 0 -25 7t-2 25l24 111q3 11 5 17t10 11t22 5h160l55 254q4 17 11.5 21.5t29.5 4.5h119q24 0 31 -6t4 -27l-51 -247h239l54 254q3 17 10 21.5t31 4.5h118q24 0 30.5 -6t2.5 -27l-51 -247h162 q18 0 22.5 -8t1.5 -27l-26 -109q-4 -19 -11.5 -25.5t-23.5 -6.5h-160l-59 -289h161q17 0 21.5 -8.5t1.5 -26.5l-27 -111q-4 -18 -11 -24t-21 -6h-160l-55 -254q-3 -17 -10 -23t-27 -6h-131q-19 0 -26 6t-3 25l53 252h-239l-54 -254q-3 -9 -3.5 -11t-3.5 -7.5t-6 -6.5 t-8.5 -2.5t-14.5 -1.5h-130q-20 0 -27 6t-3 25l53 252h-156q-19 0 -24 6.5zM530 459h240l61 289h-239z" />
<glyph unicode="$" d="M152 160q3 9 17 44t26.5 66t17.5 47q9 19 20 23.5t29 -2.5q116 -52 264 -80v377q-83 36 -139 68.5t-106.5 77t-75 102.5t-25.5 131q-2 145 85.5 246.5t260.5 128.5v174v9q0 3 1.5 6t2 5t3 3t3 1.5t4.5 1t6 0.5h6h7h45q28 0 32 -5q5 -5 5 -21v-1768v-9q0 -3 -1.5 -6t-2 -5 t-3 -3t-3.5 -1.5t-5.5 -1t-5.5 -0.5h-8h-8h-45q-25 0 -29 5.5t-4 20.5v193q-211 21 -364 116q-23 15 -10 56zM457 1022q0 -66 69 -113v213q-69 -32 -69 -100zM709 -205v1768q0 5 0.5 8.5t1.5 6.5t1.5 5t3.5 3t3.5 1.5t5 1t5.5 0.5h8h7h37q28 0 32 -5q5 -5 5 -21v-177 q164 -25 268 -77q17 -7 19.5 -20t-6.5 -36l-53 -149q-7 -23 -16.5 -28t-29.5 1q-89 28 -182 45v-336q82 -38 140.5 -74t112 -85t81 -112t27.5 -138q0 -167 -96.5 -264t-264.5 -123v-195v-9q0 -3 -1.5 -6t-2 -5t-3 -3t-3.5 -1.5t-5.5 -1t-5.5 -0.5h-8h-8h-37h-6q-13 0 -18 1 t-8.5 6.5t-3.5 18.5zM819 256q91 36 94 127q0 41 -22 72.5t-72 62.5v-262z" />
<glyph unicode="%" horiz-adv-x="1986" d="M74 961q0 200 100.5 316t292.5 116q194 0 291.5 -113.5t97.5 -316.5q0 -196 -101 -312t-292 -116t-290 113.5t-99 312.5zM311 963q0 -242 156 -242q151 0 151 240q0 243 -155 243q-152 0 -152 -241zM469.5 -55q-5.5 11 5.5 28l848 1442q10 19 18.5 25t30.5 6h121 q20 0 25.5 -10.5t-5.5 -30.5l-841 -1434q-21 -37 -70 -37h-104q-23 0 -28.5 11zM1130 414q0 200 101 316t293 116q194 0 291.5 -113.5t97.5 -316.5q0 -196 -101 -312t-292 -116t-290.5 114t-99.5 312zM1368 416q0 -242 156 -242q151 0 151 240q0 243 -155 243 q-152 0 -152 -241z" />
<glyph unicode="&#x26;" horiz-adv-x="1570" d="M131 360q0 140 81.5 257.5t209.5 197.5q-127 149 -127 293q0 157 111.5 253.5t273.5 96.5t268.5 -88.5t106.5 -232.5q0 -226 -250 -387q32 -44 131 -156q130 213 326 266q73 20 124 23q25 0 31 -23l27 -178q3 -26 -29 -31q-61 -12 -110 -36t-86 -59t-63 -73t-50 -88 l315 -352q11 -9 6.5 -26t-28.5 -17h-223q-57 0 -86 31q-96 104 -123 135q-175 -191 -418 -191q-190 0 -304 103t-114 282zM414 379q0 -66 38.5 -106t118.5 -40q58 0 122 38.5t104 93.5q-144 171 -213 258q-170 -109 -170 -244zM567 1106q0 -74 88 -174q129 82 129 172 q0 46 -27.5 79.5t-74.5 33.5q-53 0 -84 -30.5t-31 -80.5z" />
<glyph unicode="'" horiz-adv-x="583" d="M139 1391q-2 23 9 34t38 11h209q31 0 40 -11.5t7 -33.5l-49 -537q-1 -24 -11 -30.5t-36 -6.5h-108q-28 0 -38.5 7t-11.5 28z" />
<glyph unicode="(" horiz-adv-x="714" d="M98 655q0 439 371 828q22 21 31.5 20.5t31.5 -16.5l109 -74q16 -13 17.5 -19t-9.5 -24q-127 -165 -188.5 -332.5t-61.5 -369.5q0 -207 61.5 -371t188.5 -328q21 -31 -8 -51l-109 -78q-22 -13 -31.5 -10t-29.5 25q-83 87 -145 168t-116.5 180t-83 213.5t-28.5 238.5z" />
<glyph unicode=")" horiz-adv-x="731" d="M99.5 1392.5q1.5 7.5 17.5 18.5l108 76q22 18 34 18t30 -20q370 -392 370 -823q0 -126 -28 -241.5t-81.5 -215t-115.5 -181.5t-145 -167q-20 -23 -30.5 -26.5t-33.5 9.5l-108 76q-30 24 -8 51q128 166 188.5 329.5t60.5 365.5q0 209 -61 376t-188 332q-11 15 -9.5 22.5z " />
<glyph unicode="*" horiz-adv-x="1038" d="M138 1063.5q-4 6.5 3 34.5l37 116q12 43 47 25l215 -94l-24 231q-3 19 6 27t35 8h127q23 0 29 -6.5t3 -28.5l-22 -235l207 94q23 8 34 2t17 -29l41 -118q6 -23 0.5 -32t-25.5 -11l-229 -56q13 -12 45 -47t67.5 -74.5t43.5 -48.5q16 -20 12.5 -31t-23.5 -26l-100 -74 q-22 -15 -30.5 -13t-20.5 25l-121 201l-115 -203q-11 -22 -24 -23.5t-31 13.5q-9 6 -49.5 37.5t-54.5 40.5q-18 14 -19.5 23.5t12.5 27.5l156 176l-221 56q-24 6 -28 12.5z" />
<glyph unicode="+" d="M150 625v157q0 29 7 37t29 8h344v361q0 21 9.5 29t33.5 8h191q28 0 35.5 -7t7.5 -30v-361h344q23 0 30 -8t7 -37v-157q0 -25 -7.5 -34t-29.5 -9h-344v-361q0 -23 -7.5 -30t-35.5 -7h-191q-24 0 -33.5 8t-9.5 29v361h-344q-21 0 -28.5 9t-7.5 34z" />
<glyph unicode="," horiz-adv-x="577" d="M131 -233l25 524q2 24 11.5 34.5t37.5 10.5h233q31 0 39 -11.5t4 -33.5l-147 -522q-6 -24 -14 -30.5t-31 -6.5h-111q-27 0 -37.5 7.5t-9.5 27.5z" />
<glyph unicode="-" horiz-adv-x="813" d="M104 514v184q0 26 7 34.5t30 8.5h521q23 0 29.5 -8t6.5 -35v-184q0 -24 -7.5 -33.5t-28.5 -9.5h-521q-21 0 -29 9.5t-8 33.5z" />
<glyph unicode="." horiz-adv-x="610" d="M119 160q0 76 56 130t134 54q80 0 134.5 -53t54.5 -131q0 -77 -55 -131t-134 -54q-78 0 -134 53.5t-56 131.5z" />
<glyph unicode="/" horiz-adv-x="944" d="M25 -160l641 1721q6 19 17.5 25.5t39.5 6.5h172q44 0 31 -37l-639 -1718q-8 -20 -21.5 -27.5t-44.5 -7.5h-164q-44 0 -32 37z" />
<glyph unicode="0" d="M82 686q0 217 64.5 376t198 249t325.5 90q195 0 327.5 -89t194 -246t61.5 -376q0 -161 -36.5 -291.5t-108.5 -224.5t-184 -145.5t-258 -51.5q-286 0 -435 189.5t-149 519.5zM389 690q0 -102 15 -183t47 -145t87.5 -98.5t131.5 -34.5q75 0 130 34t87 97.5t46.5 144 t14.5 181.5q0 103 -15.5 185t-47.5 145.5t-87.5 98t-131.5 34.5q-277 0 -277 -459z" />
<glyph unicode="1" d="M268 1100v149q0 15 2 23t10 15.5t25 12.5l340 93q48 12 87.5 10t65 -30t25.5 -79v-1050h236q24 0 30.5 -7t6.5 -34v-162q0 -23 -7.5 -32t-29.5 -9h-750q-22 0 -29.5 9t-7.5 32v162q0 27 6.5 34t30.5 7h217v860l-217 -37q-24 -4 -32.5 2.5t-8.5 30.5z" />
<glyph unicode="2" d="M143 190q0 74 52 163t143 175q120 118 332 252q116 73 155 120t39 106q0 57 -46.5 96t-151.5 39q-159 0 -320 -107q-37 -23 -57 6l-94 144q-20 33 8 53q218 164 487 164q139 0 246.5 -41t172.5 -129t65 -213q0 -74 -23.5 -137t-71 -116t-104 -95t-135.5 -88 q-118 -68 -217 -156.5t-138 -181.5h645q24 0 30.5 -7t6.5 -34v-162q0 -23 -7.5 -32t-29.5 -9h-800q-97 0 -142 40t-45 150z" />
<glyph unicode="3" d="M123 146q-1 10 10 28l90 148q14 24 28 26.5t40 -14.5q134 -96 313 -96q120 0 186 56.5t66 154.5q0 71 -56 118t-163 47h-53q-49 0 -61.5 12t-12.5 56v82q0 45 11.5 59.5t45.5 14.5h60q93 0 146.5 44t53.5 115t-56 106.5t-138 35.5q-75 0 -157.5 -24t-149.5 -68 q-26 -15 -40 -13t-26 23l-82 137q-13 18 -12.5 30t16.5 25q92 75 221.5 113.5t255.5 38.5q95 0 177 -20.5t149.5 -62t106 -112.5t38.5 -164q0 -98 -60.5 -185t-154.5 -122v-10q125 -32 187.5 -119t62.5 -198q0 -196 -149.5 -313.5t-390.5 -117.5q-303 0 -484 144 q-17 15 -18 25z" />
<glyph unicode="4" d="M88 387v51q0 89 51 154l553 708q21 26 32.5 38.5t34.5 31t51 27t64 8.5h99q63 0 88.5 -29t25.5 -100v-762h132q25 0 35 -7.5t10 -33.5v-160q0 -22 -10 -30.5t-33 -8.5h-134v-235q0 -23 -9 -31t-36 -8h-208q-23 0 -33 8.5t-10 30.5v233h-574q-60 0 -94.5 23.5t-34.5 91.5z M393 522l4 -10h391v498l-8 6z" />
<glyph unicode="5" d="M115 174q13 19 53 83t51 79q13 20 29 20t41 -18q140 -98 327 -98q137 0 213 58.5t76 160.5q0 92 -61.5 143t-157.5 51q-20 0 -37 -1t-35.5 -4t-30 -4.5t-31 -7.5t-26.5 -8t-29 -11t-25.5 -10t-29 -12.5t-28.5 -12.5q-63 -27 -119 -7l-72 21q-46 17 -61 43.5t-12 75.5 l53 512q14 151 151 151h715q28 0 36.5 -7t8.5 -38v-162q0 -26 -10 -35.5t-35 -9.5h-598l-31 -266q107 37 269 37q221 0 361 -116.5t140 -313.5q0 -157 -76.5 -270t-203.5 -167.5t-289 -54.5q-154 0 -280 32t-234 118q-28 22 -12 49z" />
<glyph unicode="6" d="M102 625q0 134 26 251t80.5 214.5t135 167t194.5 108.5t253 39q179 0 290 -41q12 -4 16.5 -7.5t9 -15.5t-4.5 -32l-45 -162q-7 -22 -22 -26t-31 3q-100 27 -201 27q-152 0 -249 -77t-128 -222q58 17 144.5 29t152.5 12q112 0 205.5 -25t166 -76.5t113.5 -136.5t41 -198 q0 -95 -30 -174.5t-82 -135.5t-122 -94.5t-150 -57t-167 -18.5q-294 0 -445 172t-151 476zM410 559q0 -151 78 -239.5t210 -88.5q110 0 178 56t68 159q0 97 -59.5 151t-173.5 54q-140 0 -301 -45v-47z" />
<glyph unicode="7" d="M123 1174v157q0 31 8.5 40t34.5 9h903q107 0 107 -92v-63q0 -64 -33 -129l-580 -1051q-15 -26 -32.5 -35.5t-51.5 -9.5h-225q-24 0 -33 16t2 35l596 1075h-653q-25 0 -34 10t-9 38z" />
<glyph unicode="8" d="M111 401q0 109 63.5 205t161.5 133v6q-88 35 -130 108t-42 146q0 126 70 220t181.5 140t246.5 46q227 0 360 -105t133 -280q0 -44 -15.5 -93t-56.5 -102t-100 -82v-4q77 -25 129.5 -81t74 -117.5t21.5 -126.5q0 -192 -148 -314.5t-403 -122.5t-400.5 115t-145.5 309z M418 420q0 -81 58 -139t181 -58q126 0 185 60t59 141q0 92 -67.5 145.5t-174.5 53.5q-104 0 -172.5 -56.5t-68.5 -146.5zM461 979q0 -63 54.5 -106.5t139.5 -43.5q87 0 145 46.5t58 109.5q0 72 -51 119t-150 47q-98 0 -147 -49t-49 -123z" />
<glyph unicode="9" d="M92 928q0 95 30 174.5t81.5 134.5t122 93.5t150 56.5t165.5 18q293 0 444.5 -172t151.5 -475q0 -168 -42 -308t-124.5 -247t-216 -166.5t-307.5 -59.5q-176 0 -287 41q-8 4 -10.5 5t-8 5.5t-6.5 9.5t-0.5 14.5t3.5 21.5l45 164q5 21 20 25t33 -3q102 -27 201 -27 q151 0 248 77t128 222q-57 -19 -139 -31t-149 -12q-112 0 -206.5 25.5t-168.5 77t-116 137.5t-42 199zM397 938q0 -95 61.5 -150t170.5 -55q142 0 299 43q4 25 4 49q0 147 -82 237.5t-207 90.5q-102 0 -174 -57.5t-72 -157.5z" />
<glyph unicode=":" horiz-adv-x="610" d="M119 162q0 75 56 128.5t134 53.5q80 0 134.5 -52t54.5 -130q0 -76 -55.5 -129t-133.5 -53q-79 0 -134.5 52.5t-55.5 129.5zM119 889q0 76 56 129t134 53q80 0 134.5 -52t54.5 -130q0 -76 -55.5 -129t-133.5 -53q-79 0 -134.5 52.5t-55.5 129.5z" />
<glyph unicode=";" horiz-adv-x="606" d="M131 889q0 77 54.5 129.5t133.5 52.5q80 0 134.5 -52t54.5 -130q0 -77 -55 -129.5t-134 -52.5q-80 0 -134 52t-54 130zM135 -229l27 516q2 25 12 37t37 12h233q30 0 37.5 -13t3.5 -36l-145 -514q-6 -25 -14.5 -33t-32.5 -8h-109q-27 0 -38.5 9t-10.5 30z" />
<glyph unicode="&#x3c;" d="M152 664v67q0 40 16.5 58.5t54.5 35.5l916 432q20 12 30.5 7t13.5 -14t3 -27v-158q0 -31 -7.5 -44.5t-37.5 -27.5l-623 -284l619 -285q33 -17 41 -30t8 -46v-162q0 -16 -3 -24.5t-13.5 -12.5t-30.5 7l-916 430q-37 18 -53.5 35.5t-17.5 42.5z" />
<glyph unicode="=" d="M172 399v162q0 24 6.5 31.5t28.5 7.5h923q21 0 28 -8.5t7 -32.5v-156q0 -24 -8 -34.5t-29 -10.5h-917q-22 0 -30.5 9t-8.5 32zM172 827v158q0 27 7.5 35t31.5 8h915q23 0 30 -8.5t7 -34.5v-158q0 -24 -8 -33.5t-29 -9.5h-915q-22 0 -30.5 10t-8.5 33z" />
<glyph unicode="&#x3e;" d="M154 186v162q0 33 8 46t41 30l616 285l-622 284q-29 14 -36 27.5t-7 44.5v158q0 18 3 27t13.5 14t30.5 -7l913 -432q39 -18 56.5 -36.5t17.5 -57.5v-67q-1 -25 -18.5 -42.5t-55.5 -35.5l-915 -430q-19 -11 -29 -7t-13 12.5t-3 24.5z" />
<glyph unicode="?" horiz-adv-x="1185" d="M123 1245q-17 30 12 49q102 77 229.5 115.5t241.5 38.5q98 0 182 -20t152.5 -61t107.5 -111.5t39 -163.5q0 -50 -15.5 -97t-47 -90.5t-60.5 -76t-73 -74.5q-12 -12 -41 -40t-42 -40.5t-36 -37t-33.5 -40t-23.5 -37t-18 -41t-5 -39.5v-47q0 -18 -6.5 -24.5t-26.5 -6.5 h-223q-20 0 -25 7.5t-5 27.5v66q0 23 4 45.5t8 40.5t15.5 40t17.5 35t23.5 34.5t24.5 30.5t28.5 31.5t27.5 28t30.5 29t28.5 27.5q66 62 100 110.5t34 106.5q0 50 -43.5 84.5t-124.5 34.5q-152 0 -314 -99q-16 -12 -29 -11.5t-24 17.5zM352 143q0 75 56.5 128t134.5 53 q72 0 128 -48.5t56 -132.5q0 -75 -54 -125.5t-132 -50.5q-79 0 -134 50t-55 126z" />
<glyph unicode="@" horiz-adv-x="2011" d="M152 664q0 177 69.5 333t189.5 266.5t286.5 174t355.5 63.5q371 0 589 -213.5t218 -572.5q0 -227 -120.5 -362.5t-316.5 -135.5q-99 0 -167.5 33.5t-92.5 87.5q-52 -35 -118.5 -57.5t-129.5 -22.5q-158 0 -239.5 67.5t-81.5 200.5q0 130 87.5 210.5t254.5 80.5h172v21 q0 52 -26 80t-107 28q-94 0 -217 -26q-28 -7 -38.5 -3.5t-14.5 23.5l-23 109q-6 22 0 32t29 19q143 43 297 43q173 0 255.5 -75t82.5 -224v-324q0 -114 110 -114q98 0 149.5 83t51.5 220q0 272 -163 437t-441 165q-153 0 -284 -50.5t-220.5 -137.5t-140 -205.5t-50.5 -251.5 q0 -283 182.5 -459t481.5 -176q129 0 270 51q34 13 43 -10l43 -117q6 -17 2 -25.5t-22 -17.5q-68 -35 -165 -53.5t-177 -18.5q-196 0 -358.5 61t-273.5 169.5t-171.5 261t-60.5 332.5zM838 543q0 -92 123 -92q31 0 73.5 9.5t71.5 28.5v164h-129q-139 0 -139 -110z" />
<glyph unicode="A" horiz-adv-x="1341" d="M29 41l426 1284q21 68 52 89.5t97 23.5h123q73 0 104.5 -20.5t55.5 -92.5l426 -1284q2 -6 2 -13q0 -8 -3 -14q-6 -14 -26 -14h-244q-26 0 -39.5 6.5t-19.5 26.5l-80 266h-469l-80 -260q-6 -22 -17.5 -30.5t-39.5 -8.5h-240q-21 0 -27 12q-4 7 -3 15q0 7 2 14zM508 553 h321l-77 260l-76 293h-12l-78 -293z" />
<glyph unicode="B" horiz-adv-x="1392" d="M154 125v1184q0 68 25.5 97.5t96.5 29.5h502q96 0 174 -21t139 -63.5t94.5 -113.5t33.5 -165q0 -84 -44 -159.5t-114 -114.5v-15q110 -43 164.5 -138.5t54.5 -209.5q0 -192 -140 -314t-349 -122h-515q-71 0 -96.5 28t-25.5 97zM465 274h295q56 0 96.5 17t61.5 45.5 t30.5 58.5t9.5 62q0 84 -51.5 134t-146.5 50h-295v-367zM465 891h278q28 0 53 6t49 21t38 44t14 70q0 61 -38.5 96t-104.5 35h-289v-272z" />
<glyph unicode="C" horiz-adv-x="1316" d="M113 709q0 334 182 539.5t477 205.5q242 0 402 -88q16 -8 22 -16t4.5 -20.5t-10.5 -35.5l-64 -141q-11 -29 -21 -34.5t-40 3.5q-151 54 -279 54q-164 0 -255 -130.5t-91 -336.5q0 -104 18.5 -183t59 -140.5t110.5 -93.5t167 -32q60 0 124 13t95 24t96 35q30 11 42.5 5 t21.5 -30l69 -147q11 -24 11 -38q0 -4 -1 -6q-3 -14 -22 -24q-188 -115 -473 -115q-326 0 -485.5 190.5t-159.5 541.5z" />
<glyph unicode="D" horiz-adv-x="1427" d="M154 125v1184q0 68 25.5 97.5t96.5 29.5h383q140 0 252 -37.5t186.5 -102t124 -155.5t71.5 -194t22 -222t-19 -221.5t-65 -197t-117 -161t-181 -106t-251 -39.5h-406q-71 0 -96.5 28t-25.5 97zM465 274h166q84 0 147.5 22t104 60.5t65.5 97t35 123.5t10 148 q0 100 -17 175t-57 136.5t-114 94t-180 32.5h-160v-889z" />
<glyph unicode="E" horiz-adv-x="1255" d="M154 377v680q0 76 20.5 142t63.5 120.5t117.5 85.5t174.5 31h588q24 0 31.5 -10t7.5 -40v-174q0 -26 -8 -35.5t-31 -9.5h-520q-74 0 -103.5 -33.5t-29.5 -93.5v-157h588q24 0 31.5 -9.5t7.5 -39.5v-160q0 -26 -7.5 -36.5t-31.5 -10.5h-588v-234q0 -68 32.5 -95.5 t100.5 -27.5h541q26 0 33.5 -9t7.5 -40v-174q0 -26 -8.5 -36.5t-32.5 -10.5h-607q-88 0 -155.5 21.5t-109 57t-67.5 86t-36 101.5t-10 111z" />
<glyph unicode="F" horiz-adv-x="1210" d="M154 43v1014q0 61 11.5 114.5t39.5 103t70 84.5t107.5 56t147.5 21h598q26 0 33.5 -10t7.5 -40v-174q0 -26 -9 -35.5t-32 -9.5h-530q-74 0 -103.5 -33t-29.5 -94v-188h582q24 0 31 -9t7 -40v-160q0 -26 -8 -36.5t-30 -10.5h-582v-553q0 -28 -8 -35.5t-39 -7.5h-217 q-25 0 -36 9.5t-11 33.5z" />
<glyph unicode="G" horiz-adv-x="1417" d="M113 711q0 224 75.5 390.5t226.5 259.5t361 93q244 0 412 -86q23 -12 26 -26t-12 -48l-63 -145q-12 -30 -22 -35.5t-40 4.5q-143 51 -289 51q-174 0 -261 -125t-87 -335q0 -106 17 -185t56 -141t107.5 -93.5t165.5 -31.5q130 0 215 31v307h-31q-109 0 -247 -18 q-27 -3 -36.5 5t-12.5 38l-17 145q-3 23 7 37t41 20q138 26 275 26q81 0 161 -9q45 -5 75 -17t47.5 -28t26 -46t11 -59t2.5 -80v-430q0 -65 -50 -96q-75 -44 -182.5 -70t-177 -31.5t-135.5 -5.5q-326 0 -485.5 191t-159.5 543z" />
<glyph unicode="H" horiz-adv-x="1486" d="M154 43v1348q0 24 11 33.5t36 9.5h217q31 0 40 -8.5t9 -34.5v-510h555v510q0 25 10.5 34t36.5 9h215q31 0 40 -8.5t9 -34.5v-1348q0 -26 -9 -34.5t-40 -8.5h-215q-26 0 -36.5 9t-10.5 34v573h-555v-573q0 -26 -9 -34.5t-40 -8.5h-217q-25 0 -36 9.5t-11 33.5z" />
<glyph unicode="I" horiz-adv-x="673" d="M180 43v1348q0 24 11 33.5t36 9.5h217q31 0 40.5 -8.5t9.5 -34.5v-1348q0 -26 -9.5 -34.5t-40.5 -8.5h-217q-25 0 -36 9.5t-11 33.5z" />
<glyph unicode="J" horiz-adv-x="1208" d="M18 103q0 9 9 34l73 168q8 20 19 23t31 -6q156 -66 315 -66q84 0 139 24t84 73t40 107.5t11 143.5v789q0 26 10.5 33.5t36.5 7.5h218q28 0 37.5 -7.5t9.5 -33.5v-840q0 -136 -29.5 -239t-94 -180t-174 -117t-261.5 -40q-106 0 -236 26t-219 79q-19 13 -19 21z" />
<glyph unicode="K" horiz-adv-x="1398" d="M154 43v1348q0 24 11 33.5t36 9.5h215q31 0 39 -7.5t8 -35.5v-549l8 -4l193 243l256 320q19 20 37 26.5t59 6.5h264q19 0 25 -12t-7 -27l-405 -482l477 -862q10 -17 10 -28q0 -5 -2 -9q-6 -14 -28 -14h-238q-28 0 -37 0.5t-23.5 4.5t-22.5 14t-19 28l-330 612l-217 -260 v-356q0 -28 -8 -35.5t-39 -7.5h-215q-25 0 -36 9.5t-11 33.5z" />
<glyph unicode="L" horiz-adv-x="1183" d="M154 377v1016q0 24 11 33.5t36 9.5h217q31 0 40 -8.5t9 -34.5v-994q0 -73 35 -102t102 -29h520q24 0 31.5 -8t7.5 -35v-182q0 -23 -8.5 -33t-30.5 -10h-592q-88 0 -155.5 21.5t-109 57t-67.5 86t-36 101.5t-10 111z" />
<glyph unicode="M" horiz-adv-x="1781" d="M154 41v1251q0 78 29.5 111t101.5 33h118q56 0 84.5 -21t53.5 -76l223 -499l127 -291h8l139 319l209 467q26 57 56.5 79t93.5 22h100q69 0 100 -29.5t31 -103.5v-1262q0 -26 -9.5 -33.5t-37.5 -7.5h-203q-25 0 -35 7.5t-10 33.5v784h-12l-84 -190l-170 -377 q-24 -53 -47 -71.5t-70 -18.5h-112q-49 0 -69 17t-46 73l-127 266l-127 277h-12v-760q0 -26 -9.5 -33.5t-37.5 -7.5h-209q-26 0 -36.5 7.5t-10.5 33.5z" />
<glyph unicode="N" horiz-adv-x="1523" d="M154 43v1249q0 80 29 112t104 32h86q61 0 89.5 -17t63.5 -76l348 -530l177 -276h10v856q0 25 9 34t38 9h215q26 0 36.5 -10t10.5 -33v-1252q0 -70 -29 -105.5t-104 -35.5h-86q-62 0 -90.5 16.5t-63.5 73.5l-327 496l-197 305h-10v-848q0 -26 -9 -34.5t-38 -8.5h-215 q-25 0 -36 9.5t-11 33.5z" />
<glyph unicode="O" horiz-adv-x="1495" d="M113 715q0 345 169 543t463 198q313 0 475 -194t162 -541q0 -359 -159 -551.5t-484 -192.5q-313 0 -469.5 190t-156.5 548zM438 727q0 -112 15.5 -195t51 -146.5t97 -95.5t148.5 -32q85 0 147 37t95.5 102.5t49 144t15.5 173.5q-1 80 -9 144t-29 125.5t-54.5 102.5 t-88.5 66t-128 25q-101 0 -172.5 -62.5t-104.5 -162.5t-33 -226z" />
<glyph unicode="P" horiz-adv-x="1318" d="M154 43v1268q0 62 26.5 93.5t95.5 31.5h502q219 0 349 -125.5t130 -323.5q0 -34 -4.5 -70t-18.5 -83.5t-36.5 -89t-62.5 -84t-93 -72.5t-131.5 -49t-173.5 -19h-272v-477q0 -28 -9 -35.5t-40 -7.5h-215q-25 0 -36 9.5t-11 33.5zM465 772h268q100 0 151.5 54.5t51.5 140.5 q0 26 -5 50.5t-19.5 51.5t-36.5 46.5t-59 32.5t-85 13h-266v-389z" />
<glyph unicode="Q" horiz-adv-x="1495" d="M113 715q0 345 169 543t463 198q313 0 475 -194t162 -541q0 -359 -159 -551.5t-484 -192.5q-313 0 -469.5 190t-156.5 548zM438 727q0 -112 15.5 -195t51 -146.5t97 -95.5t148.5 -32q85 0 147 37t95.5 102.5t49 144t15.5 173.5q-1 80 -9 144t-29 125.5t-54.5 102.5 t-88.5 66t-128 25q-101 0 -172.5 -62.5t-104.5 -162.5t-33 -226zM645 -137q0 23 6.5 31t28.5 8h231q172 0 310.5 -37t216.5 -94q17 -12 20 -23q1 -2 1 -5q0 -10 -7 -24l-76 -139q-11 -20 -24 -22q-2 -1 -5 -1q-12 0 -34 11q-189 98 -459 98h-174q-22 0 -28.5 8.5t-6.5 30.5 v158z" />
<glyph unicode="R" horiz-adv-x="1370" d="M154 43v1268q0 65 26 95t96 30h502q219 0 343 -112.5t124 -303.5q0 -107 -50 -198.5t-140 -139.5l2 -10q63 -28 93 -78.5t52 -136.5l105 -410q2 -6 2 -12q-1 -9 -5 -19q-6 -16 -28 -16h-215q-16 0 -25 1t-22.5 4t-22 12t-12.5 24l-90 362q-26 98 -77.5 138.5t-145.5 40.5 h-199v-539q0 -28 -8 -35.5t-39 -7.5h-219q-25 0 -36 9.5t-11 33.5zM469 834h272q88 0 136.5 45t48.5 120q0 29 -8 55.5t-27 51.5t-55.5 40t-87.5 15h-279v-327z" />
<glyph unicode="S" horiz-adv-x="1228" d="M70 128v6q0 13 8 34l69 164q10 24 22.5 28t35.5 -6q248 -96 405 -96q120 0 172 40t52 103q0 62 -49 104t-179 91q-95 36 -162 67.5t-130.5 72t-102 83.5t-61.5 99.5t-23 123.5q0 184 124 300t363 116q119 0 245 -25.5t214 -68.5q25 -12 28.5 -23.5t-7.5 -42.5l-54 -153 q-10 -28 -20.5 -33t-34.5 2q-215 66 -371 66q-84 0 -123.5 -31.5t-39.5 -81.5q0 -53 50 -91t189 -95q79 -31 133 -55t113.5 -57t97.5 -67t70.5 -78t47.5 -98.5t15 -119.5q0 -210 -144 -319.5t-390 -109.5q-145 0 -289 31.5t-254 97.5q-18 8 -20 22z" />
<glyph unicode="T" horiz-adv-x="1175" d="M25 1208v183q0 26 7.5 34.5t30.5 8.5h1049q25 0 33 -8.5t8 -34.5v-183q0 -22 -9.5 -31.5t-31.5 -9.5h-371v-1124q0 -26 -9 -34.5t-40 -8.5h-219q-25 0 -36 9.5t-11 33.5v1124h-363q-21 0 -29.5 9.5t-8.5 31.5z" />
<glyph unicode="U" horiz-adv-x="1468" d="M152 1391q0 24 11.5 33.5t35.5 9.5h219q31 0 40 -8.5t9 -34.5v-813q0 -88 14.5 -147t51 -101.5t100 -62t160.5 -19.5q131 0 213 16v1127q0 24 11 33.5t36 9.5h217q30 0 37.5 -8t7.5 -35v-1192q0 -77 -34 -126.5t-116 -70.5q-118 -27 -350 -27q-182 0 -303 29.5 t-203.5 101.5t-118.5 191t-36 299z" />
<glyph unicode="V" horiz-adv-x="1359" d="M29 1401q-2 7 -2 13q1 7 3 12q6 10 23 10h246q26 0 37.5 -8.5t17.5 -28.5l215 -694l105 -363h14l96 358l220 705q6 19 18 25t37 6h250q24 0 24 -20q0 -6 -2 -15l-440 -1292q-22 -68 -53 -87.5t-95 -21.5h-127q-63 0 -95 21.5t-56 89.5z" />
<glyph unicode="W" horiz-adv-x="1851" d="M29 1397q-3 12 -3 20q0 9 4 13q7 8 31 8h250q32 0 46 -8t20 -37l102 -594l62 -367h14l78 371l110 516q15 67 43 92t93 25h118q58 0 81 -24t38 -85l115 -539l74 -348h12l57 348l105 601q4 30 15 38.5t38 8.5h264q22 0 28 -8q3 -4 3 -12t-4 -21l-291 -1291 q-17 -71 -45.5 -89.5t-93.5 -18.5h-113q-64 0 -94 21t-49 92l-119 544l-80 377h-12l-86 -377l-125 -544q-17 -69 -45.5 -91t-91.5 -22h-119q-36 0 -53 2t-36.5 11.5t-31 31t-19.5 59.5z" />
<glyph unicode="X" horiz-adv-x="1265" d="M18 14q-2 6 -3 11q0 8 5 16l437 704l-400 652q-10 12 -3.5 25.5t28.5 13.5h240q40 0 56.5 -8.5t31.5 -36.5l225 -400l223 400q15 28 31.5 36.5t56.5 8.5h236q22 0 27 -14t-5 -27l-395 -647l436 -707q5 -8 5 -16q0 -6 -2 -11q-6 -14 -23 -14h-256q-36 0 -53 9.5t-35 37.5 l-250 445l-248 -445q-19 -29 -36 -38t-54 -9h-252q-17 0 -23 14z" />
<glyph unicode="Y" horiz-adv-x="1280" d="M19 1422q7 14 28 14h258q28 0 40.5 -9.5t21.5 -35.5l137 -285l131 -293h12l135 303l136 281q9 21 21 30t34 9h260q30 0 30 -18q0 -8 -6 -19l-456 -871v-487q0 -24 -8.5 -32.5t-36.5 -8.5h-224q-23 0 -33 9.5t-10 31.5v483l-469 873q-4 6 -4 13q0 5 3 12z" />
<glyph unicode="Z" horiz-adv-x="1288" d="M61 111v49q0 46 16 81t50 76l692 840l-2 12h-622q-22 0 -30.5 10t-8.5 33v179q0 28 7 36.5t32 8.5h895q67 0 94.5 -25.5t27.5 -91.5v-68q0 -72 -71 -159l-668 -811l4 -15h705q23 0 30 -8.5t7 -36.5v-178q0 -25 -7.5 -34t-29.5 -9h-1002q-60 0 -89.5 26t-29.5 85z" />
<glyph unicode="[" horiz-adv-x="747" d="M156 -141v1573q0 22 8.5 32.5t30.5 10.5h446q19 0 25 -7t6 -26v-156q0 -19 -6 -25t-29 -6h-199v-1220h203q19 0 25 -6.5t6 -24.5v-154q0 -21 -5.5 -27.5t-25.5 -6.5h-446q-22 0 -30.5 10.5t-8.5 32.5z" />
<glyph unicode="\" horiz-adv-x="944" d="M25 1554q-9 19 0.5 29t29.5 10h170q28 0 40 -8.5t20 -28.5l639 -1714q12 -39 -33 -39h-164q-30 0 -44 8t-21 29z" />
<glyph unicode="]" horiz-adv-x="759" d="M135 4q0 18 6.5 24.5t26.5 6.5h201v1220h-201q-19 0 -26 7.5t-7 23.5v152q0 22 6.5 29.5t26.5 7.5h442q43 0 43 -43v-1573q0 -43 -43 -43h-444q-20 0 -25.5 7.5t-5.5 29.5v151z" />
<glyph unicode="^" horiz-adv-x="1193" d="M77.5 786q-5.5 12 4.5 27l375 617q35 61 92 61h78q30 0 49 -8.5t26.5 -17.5t22.5 -33l373 -615q11 -19 4 -30t-25 -11h-192q-45 0 -60 31l-233 405h-6l-228 -397q-13 -25 -27 -33t-40 -8h-189q-19 0 -24.5 12z" />
<glyph unicode="_" horiz-adv-x="1024" d="M-35 -190q0 28 6 36.5t29 8.5h1024q23 0 30 -8.5t7 -36.5v-68q0 -24 -8 -33.5t-29 -9.5h-1024q-21 0 -28 9.5t-7 33.5v68z" />
<glyph unicode="`" horiz-adv-x="1120" d="M264.5 1557q-0.5 8 4.5 14t16 8l213 53q22 4 31 -1.5t16 -20.5l141 -359q7 -21 3 -27.5t-21 -11.5l-113 -41q-15 -5 -25 -1.5t-22 20.5l-238 352q-5 7 -5.5 15z" />
<glyph unicode="a" horiz-adv-x="1179" d="M92 319q0 165 110 266t322 101h226v33q0 67 -37.5 106t-141.5 39q-61 0 -145 -11.5t-143 -27.5q-26 -6 -36.5 0t-15.5 27l-32 143q-5 22 -0.5 31.5t20.5 15.5q174 62 395 62q433 0 433 -377v-594q0 -30 -8 -48t-35 -32q-164 -76 -435 -76q-134 0 -229.5 25.5t-148 73.5 t-76 107.5t-23.5 135.5zM399 342q0 -129 179 -129q98 0 170 27v247h-162q-187 0 -187 -145z" />
<glyph unicode="b" horiz-adv-x="1236" d="M133 119v1337q0 24 10 32.5t35 8.5h211q24 0 33.5 -8t9.5 -33v-385q116 33 242 33q122 0 214 -42.5t147.5 -119t82.5 -176t27 -219.5q0 -122 -30.5 -222.5t-93 -180t-168 -123.5t-245.5 -44q-263 0 -438 80q-23 10 -30 23.5t-7 38.5zM432 252q70 -21 160 -21 q244 0 244 310q0 152 -59 229.5t-167 77.5q-89 0 -178 -27v-569z" />
<glyph unicode="c" horiz-adv-x="1046" d="M92 535q0 262 137.5 414.5t372.5 152.5q181 0 324 -70q26 -12 29.5 -22t-7.5 -35l-57 -158q-8 -22 -22.5 -24.5t-41.5 6.5q-113 37 -202 37q-114 0 -169 -84.5t-55 -216.5q0 -90 19 -151.5t71.5 -100.5t139.5 -39q114 0 235 47q26 10 36.5 6.5t17.5 -25.5l57 -153 q8 -16 8 -28q0 -18 -22 -30q-151 -84 -379 -84q-240 0 -366 141.5t-126 416.5z" />
<glyph unicode="d" horiz-adv-x="1236" d="M92 528q0 118 29 219.5t87.5 182t155 126.5t222.5 46q110 0 217 -23v375q0 25 9 33t36 8h209q25 0 35 -8t10 -33v-1261q0 -64 -4 -93q-5 -42 -105 -72t-203 -40.5t-180 -10.5q-143 0 -246 40.5t-161 116.5t-84.5 172.5t-26.5 221.5zM401 524q0 -158 61.5 -226.5 t182.5 -68.5q91 0 158 25v571q-92 21 -168 21q-108 0 -171 -80t-63 -242z" />
<glyph unicode="e" horiz-adv-x="1163" d="M92 532q0 273 142.5 421.5t388.5 148.5q108 0 195.5 -32.5t144 -89.5t86.5 -131.5t30 -160.5q0 -113 -54.5 -173t-184.5 -60h-439q4 -123 69 -174.5t177 -51.5q118 0 252 56q25 10 34 6.5t17 -21.5l64 -147q12 -30 -19 -49q-70 -46 -177 -71.5t-200 -25.5 q-268 0 -397 134.5t-129 420.5zM408 649h383q-2 100 -42.5 153.5t-142.5 53.5q-83 0 -136.5 -57t-61.5 -150z" />
<glyph unicode="f" horiz-adv-x="827" d="M23 887v117q0 20 7 28.5t29 14.5l144 32v117q0 149 82 235.5t252 86.5q157 0 266 -33q20 -7 23 -18q2 -5 2 -10q0 -7 -3 -15l-34 -170q-3 -18 -11.5 -22t-27.5 -1q-88 15 -140 15q-64 0 -88 -26t-24 -71v-92h245q19 0 25 -6.5t6 -26.5v-157q0 -19 -6 -26t-29 -7h-241 v-815q0 -23 -9 -30t-32 -7h-213q-23 0 -33 7.5t-10 31.5v813h-150q-15 0 -21.5 5.5t-7.5 11t-1 18.5z" />
<glyph unicode="g" horiz-adv-x="1236" d="M92 539q0 120 32 220t96 176.5t169 119.5t242 43q261 0 432 -78q25 -13 33 -27t8 -37v-845q0 -142 -37 -245.5t-112.5 -171t-177.5 -106t-245 -57.5q-9 -1 -16 -1q-11 0 -16 3q-8 5 -11 25l-26 196q-3 21 2.5 27.5t23.5 9.5q54 9 92.5 18.5t83.5 27.5t72.5 41t46.5 59.5 t19 82.5v13q-109 -31 -240 -31q-238 0 -354.5 143t-116.5 394zM401 545q0 -289 228 -289q87 0 176 27v540q-76 23 -158 23q-119 -2 -182.5 -71.5t-63.5 -229.5z" />
<glyph unicode="h" horiz-adv-x="1247" d="M133 37v1421q0 21 9.5 30t31.5 9h213q27 0 35 -7.5t8 -31.5v-387q119 33 240 33q219 0 332.5 -118t113.5 -337v-612q0 -24 -8.5 -30.5t-36.5 -6.5h-213q-24 0 -33.5 8t-9.5 29v573q0 115 -45.5 176.5t-157.5 61.5q-106 0 -182 -27v-784q0 -24 -7.5 -30.5t-35.5 -6.5h-211 q-24 0 -33.5 8t-9.5 29z" />
<glyph unicode="i" horiz-adv-x="638" d="M154 1356q0 71 50 120.5t120 49.5q71 0 121.5 -49.5t50.5 -120.5t-50.5 -119.5t-121.5 -48.5q-70 0 -120 48.5t-50 119.5zM172 37v1001q0 21 9.5 29t33.5 8h209q28 0 36.5 -7t8.5 -30v-1001q0 -23 -8.5 -30t-36.5 -7h-209q-24 0 -33.5 8t-9.5 29z" />
<glyph unicode="j" horiz-adv-x="653" d="M-50 -222q5 8 30 21q118 59 160 139t42 216v884q0 22 9 29.5t32 7.5h215q27 0 34 -6.5t7 -30.5v-882q0 -115 -21 -207t-55 -155t-86.5 -112.5t-106.5 -79t-124 -53.5q-23 -7 -36 -7q-4 0 -8 1q-12 3 -19 23l-68 176q-6 18 -6 28q0 5 1 8zM164 1356q0 71 50.5 120.5 t121.5 49.5t120.5 -49t49.5 -121q0 -71 -49.5 -119.5t-120.5 -48.5t-121.5 48.5t-50.5 119.5z" />
<glyph unicode="k" horiz-adv-x="1130" d="M131 39v1421q0 21 9.5 29t33.5 8h213q28 0 34.5 -6t6.5 -31v-758l8 -4l293 349q15 18 27 23t41 5h250q27 0 31 -13t-11 -30l-274 -319l317 -672q4 -10 4 -18q0 -23 -35 -23h-237q-26 0 -39.5 7.5t-22.5 31.5l-194 438l-156 -176q0 -190 -2 -262q0 -24 -8 -31.5t-35 -7.5 h-211q-23 0 -33 8.5t-10 30.5z" />
<glyph unicode="l" horiz-adv-x="675" d="M147 262v1196q0 25 10.5 32t35.5 7h208q25 0 35 -7.5t10 -29.5v-1136q0 -53 16 -74t60 -21q13 0 76 7q19 2 26.5 -3t8.5 -22l18 -156q1 -8 1 -15q0 -10 -3 -15q-5 -8 -28 -17q-88 -31 -215 -31q-131 0 -195 63t-64 222z" />
<glyph unicode="m" horiz-adv-x="1908" d="M133 37v874q0 75 25 113.5t102 56.5q35 7 126 14t151 7q253 0 383 -96q68 45 165.5 71.5t194.5 26.5q254 0 375 -135.5t121 -370.5v-561q0 -23 -8.5 -30t-36.5 -7h-209q-24 0 -33.5 8t-9.5 29v526q0 146 -52 216.5t-180 70.5q-42 0 -98 -10.5t-86 -26.5q33 -90 33 -235 v-541q0 -23 -8.5 -30t-36.5 -7h-211q-24 0 -33.5 8t-9.5 29v553q0 67 -10 113t-35.5 82t-72.5 53.5t-118 17.5q-85 0 -131 -10v-809q0 -23 -7.5 -30t-35.5 -7h-211q-24 0 -33.5 8t-9.5 29z" />
<glyph unicode="n" horiz-adv-x="1247" d="M133 37v878q0 74 26.5 113t100.5 53q42 7 138.5 14t158.5 7q291 0 424 -122t133 -409v-534q0 -23 -7.5 -30t-35.5 -7h-213q-24 0 -33.5 8t-9.5 29v553q0 140 -53.5 203t-192.5 63q-82 0 -139 -10v-809q0 -23 -7.5 -30t-35.5 -7h-211q-24 0 -33.5 8t-9.5 29z" />
<glyph unicode="o" horiz-adv-x="1218" d="M92 539q0 264 137 413.5t379 149.5q253 0 385.5 -147t132.5 -412q0 -273 -131.5 -419.5t-390.5 -146.5q-260 0 -386 145t-126 417zM399 543q0 -157 49.5 -235.5t157.5 -78.5t159.5 84.5t51.5 223.5q0 313 -205 313q-105 0 -159 -82t-54 -225z" />
<glyph unicode="p" horiz-adv-x="1236" d="M133 -383v1335q0 23 8 37t33 27q182 82 453 82q113 0 202 -28.5t148 -78.5t97 -121.5t54.5 -153t16.5 -177.5q0 -117 -29.5 -216.5t-87 -176.5t-151 -120.5t-213.5 -43.5q-117 0 -232 24v-389q0 -23 -7.5 -29t-35.5 -6h-213q-24 0 -33.5 7t-9.5 28zM432 260 q86 -22 170 -22q232 0 232 307q0 162 -62 229.5t-184 67.5q-82 0 -156 -23v-559z" />
<glyph unicode="q" horiz-adv-x="1236" d="M92 522q0 100 19 185.5t60.5 158t104 123.5t153 80t202.5 29q257 0 432 -80q25 -11 33 -25.5t8 -36.5v-1339q0 -24 -8 -31.5t-35 -7.5h-213q-23 0 -33 8.5t-10 30.5v397q-112 -32 -242 -32q-122 0 -214 40t-147.5 113t-82.5 170t-27 217zM401 539q0 -153 59.5 -227 t168.5 -74q90 0 176 26v557q-76 23 -158 23q-119 -2 -182.5 -73.5t-63.5 -231.5z" />
<glyph unicode="r" horiz-adv-x="802" d="M147 43v815q0 63 4 96.5t20 65t49 46t89 21.5q142 17 309 17q58 0 119 -2q34 -2 45 -11t11 -40v-166q0 -29 -15 -38t-45 -7q-89 5 -170 5q-61 0 -119 -3v-799q1 -26 -9 -34.5t-38 -8.5h-198q-26 0 -39 8.5t-13 34.5z" />
<glyph unicode="s" horiz-adv-x="1017" d="M74 131l59 141q10 23 21 27.5t34 -4.5q67 -29 161.5 -51.5t156.5 -22.5q133 0 133 90q0 40 -40.5 69t-145.5 69q-88 34 -145.5 64t-103.5 69t-67.5 87.5t-21.5 110.5q0 141 102 231.5t297 90.5q201 0 360 -70q21 -10 24 -21.5t-5 -35.5l-51 -131q-7 -21 -18 -25t-33 4 q-152 47 -271 47q-51 0 -77.5 -23.5t-26.5 -53.5q0 -40 36 -66t134 -63q70 -26 114.5 -45.5t95.5 -51.5t80 -66t48.5 -83.5t19.5 -110.5q0 -161 -115 -245.5t-311 -84.5q-115 0 -231.5 25t-200.5 76q-19 11 -19 29q0 11 7 24z" />
<glyph unicode="t" horiz-adv-x="862" d="M31 895v111q0 21 5.5 28t26.5 13l152 34l14 193q1 23 12 33.5t35 17.5l189 61q6 1 11 1q30 0 30 -37v-275h225q22 0 27.5 -7.5t5.5 -27.5v-145q0 -16 -1 -22.5t-8.5 -11.5t-23.5 -5h-225v-520q0 -57 28.5 -81t90.5 -24q14 0 153 15q19 3 26 -1.5t9 -19.5l25 -172 q2 -7 2 -14q0 -5 -1 -9q-3 -10 -22 -18q-113 -35 -280 -35q-171 0 -249.5 73.5t-78.5 221.5v584h-143q-21 0 -28 9.5t-7 29.5z" />
<glyph unicode="u" horiz-adv-x="1228" d="M133 508v530q0 24 8 31.5t35 7.5h213q23 0 33 -8.5t10 -30.5v-549q0 -73 8.5 -119t32.5 -82t69.5 -51.5t116.5 -15.5q69 0 140 10v807q0 24 8 31.5t35 7.5h211q23 0 33 -8.5t10 -30.5v-874q0 -72 -28.5 -113t-98.5 -55q-45 -9 -137 -15t-158 -6q-295 0 -418 121t-123 412 z" />
<glyph unicode="v" horiz-adv-x="1140" d="M28 1068q6 8 27 7h232q32 0 42.5 -6.5t18.5 -30.5l131 -420l94 -346h13l94 349l125 415q6 24 16 31.5t41 7.5h228q26 0 26 -18q0 -7 -4 -15l-319 -944q-22 -66 -52 -87t-90 -21h-153q-52 0 -80.5 21.5t-52.5 86.5l-336 940q-4 12 -4 19q0 8 3 11z" />
<glyph unicode="w" horiz-adv-x="1626" d="M31 1040q-3 9 -3 16q0 8 4 13q8 8 29 8h232q20 0 27.5 -1.5t14.5 -8.5t11 -23l70 -364l55 -332h12l72 258l92 320q18 54 43.5 76t79.5 22h107q26 0 43.5 -6t29.5 -21.5t18 -29t15 -41.5l94 -316l74 -264h12l49 326l68 370q4 23 11.5 28t33.5 5l240 2q21 0 27 -8 q4 -5 5 -15q0 -6 -2 -14l-235 -940q-18 -65 -47 -87.5t-82 -22.5h-107q-59 0 -84 19t-49 87l-90 295l-80 279h-10l-84 -283l-92 -291q-25 -66 -50 -86t-81 -20h-113q-53 0 -81 22t-46 88z" />
<glyph unicode="x" horiz-adv-x="1071" d="M16 12q-2 4 -1 9q0 10 8 24l346 522l-310 471q-9 10 -4.5 23.5t23.5 13.5h246q28 0 43.5 -8.5t25.5 -30.5l144 -264l145 264q12 22 27 30.5t43 8.5h241q20 0 25 -12.5t-2 -22.5l-316 -469l349 -528q8 -10 8 -20q0 -5 -2 -9q-6 -14 -29 -14h-240q-31 0 -45 10t-28 35 l-178 315l-183 -315q-13 -24 -28.5 -34.5t-44.5 -10.5h-234q-23 0 -29 12z" />
<glyph unicode="y" horiz-adv-x="1144" d="M25 1036q-3 9 -3 16q0 23 29 23h232q31 0 42 -7t17 -30l141 -518q41 -140 86 -190h13l221 704q6 24 16.5 32.5t40.5 8.5h244q26 0 26 -18q0 -6 -4 -15l-413 -1222q-47 -137 -135 -198.5t-234 -61.5q-115 0 -203 28q-25 6 -31.5 15t-0.5 30l34 162q6 23 15 27t30 -2 q54 -10 101 -10q75 0 113.5 24t62.5 94l24 72q-170 95 -253 352z" />
<glyph unicode="z" horiz-adv-x="1032" d="M47 88v62q0 72 49 126l490 553l-4 9h-447q-24 0 -30.5 7.5t-6.5 31.5v159q0 22 8.5 30.5t30.5 8.5h729q55 0 79 -17t24 -65v-71q0 -71 -41 -117l-492 -553l4 -10h500q22 0 30.5 -8t8.5 -29v-166q0 -24 -7 -31.5t-30 -7.5h-797q-98 0 -98 88z" />
<glyph unicode="{" horiz-adv-x="860" d="M135 594v139q0 14 6.5 20t24.5 9q52 3 82.5 40t30.5 109v164q0 204 105.5 298.5t336.5 99.5q29 3 29 -27v-158q0 -12 -7.5 -21t-19.5 -10q-55 -2 -88.5 -14.5t-49.5 -38t-21 -53t-5 -74.5v-139q0 -226 -149 -281v-6q76 -28 112.5 -95t36.5 -181v-172q0 -90 32 -133.5 t130 -49.5q17 -1 23 -6.5t6 -17.5v-164q0 -29 -27 -29q-225 3 -334.5 101t-109.5 301v209q0 71 -30.5 108.5t-82.5 40.5q-18 3 -24.5 9t-6.5 22z" />
<glyph unicode="|" horiz-adv-x="548" d="M160 -295v1872q0 43 41 43h157q27 0 35 -8.5t8 -34.5v-1872q0 -26 -8 -34.5t-35 -8.5h-157q-41 0 -41 43z" />
<glyph unicode="}" horiz-adv-x="860" d="M139 -2q0 22 27 25q41 2 70.5 12t47.5 24.5t27.5 38t13 48t3.5 59.5v172q0 114 37.5 180t113.5 96v6q-151 53 -151 281v139q0 47 -4.5 74.5t-20 54t-49 39t-88.5 15.5q-27 0 -27 28v158q0 27 27 27q232 -5 338 -99.5t106 -298.5v-164q0 -71 30.5 -108.5t80.5 -42.5 q19 -1 26 -8t7 -21v-137q0 -17 -6.5 -23t-24.5 -8q-50 -3 -81.5 -42t-31.5 -109v-209q0 -201 -109 -297.5t-337 -102.5q-14 0 -19.5 6.5t-5.5 22.5v164z" />
<glyph unicode="~" d="M152 592q127 184 307 184q52 0 112 -18.5t105 -41t97.5 -41t90.5 -18.5q44 0 77.5 22.5t74.5 70.5q18 26 43 10l123 -90q22 -17 6 -45q-56 -87 -139.5 -140t-174.5 -53q-49 0 -108 18.5t-105 41t-99.5 41t-92.5 18.5q-86 0 -156 -76q-23 -26 -43 -10l-114 86 q-20 15 -4 41z" />
<glyph unicode="&#xa1;" horiz-adv-x="616" d="M129 901q0 75 53.5 126.5t130.5 51.5t131 -51.5t54 -126.5t-54 -126.5t-131 -51.5t-130.5 51.5t-53.5 126.5zM156 -328l45 879q2 25 13 34t40 9h123q22 0 32 -8.5t11 -30.5l45 -883q2 -22 -7 -34.5t-38 -12.5h-215q-29 0 -40 12.5t-9 34.5z" />
<glyph unicode="&#xa2;" d="M199 535q0 250 125 400t342 165v168q0 17 6.5 22.5t21.5 5.5h64q16 0 21 -5t5 -23v-170q138 -13 248 -66q26 -12 30 -22t-7 -35l-58 -158q-8 -22 -22 -24.5t-41 6.5q-84 26 -150 32v-585q86 7 189 45q26 10 36 7t17 -26l57 -153q10 -19 8 -33t-22 -25q-115 -64 -285 -79 v-177q0 -18 -5 -23t-21 -5h-64q-15 0 -21.5 5.5t-6.5 22.5v172q-230 8 -348.5 148.5t-118.5 409.5zM508 535q0 -56 7.5 -101t25 -83t49 -63t76.5 -36v573q-55 -16 -91.5 -60t-51.5 -101t-15 -129z" />
<glyph unicode="&#xa3;" d="M162 629v112q0 24 7 32.5t30 8.5h110q-3 13 -14 63t-17 88t-6 73q0 193 139.5 291t368.5 98q214 0 367 -84q25 -14 26 -27t-14 -43l-55 -127q-11 -27 -22 -32t-42 5q-131 46 -245 46q-87 0 -144 -39.5t-57 -112.5q0 -77 33 -199h321q23 0 29 -6.5t6 -34.5v-112 q0 -23 -6.5 -30t-28.5 -7h-307q3 -51 0 -98q-8 -161 -74 -242h580q24 0 30.5 -7t6.5 -34v-174q0 -23 -7.5 -30t-29.5 -7h-879q-45 0 -72.5 20t-27.5 60v59q0 40 12 66t45 61q52 48 75 101.5t32 121.5q7 40 4 103h-137q-22 0 -29.5 7t-7.5 30z" />
<glyph unicode="&#xa4;" horiz-adv-x="1077" d="M20 197q1 16 21 36l104 103q-67 97 -67 235q0 139 61 228l-94 96q-20 20 -22 35.5t20 40.5q10 8 92 90q35 35 70 4l98 -102q102 57 223 57q126 0 226 -59q11 12 33.5 34.5t45 44.5t23.5 23q34 37 74 -2l90 -84q37 -40 6 -76l-111 -108q60 -102 60 -222q0 -123 -60 -225 q8 -9 52 -51.5t55 -54.5q37 -32 -4 -76l-88 -90q-36 -34 -74 4l-104 104q-109 -61 -224 -61q-114 0 -213 57q-10 -9 -54 -55.5t-56 -56.5q-38 -33 -72 4q-1 1 -24.5 24t-42.5 42.5t-23 23.5q-22 21 -21 37zM307 565q0 -91 63 -155t154 -64t155 64t64 155q0 90 -64.5 154.5 t-154.5 64.5q-91 0 -155 -65t-62 -154z" />
<glyph unicode="&#xa5;" d="M89 1363q7 13 30 13h246q30 0 41 -7.5t20 -31.5l127 -282l113 -275h10l112 277l125 284q8 19 19.5 27t34.5 8h256q41 0 22 -37l-262 -524h191q20 0 25 -8t5 -29v-90q0 -16 -1.5 -22.5t-8 -10.5t-20.5 -4h-996q-20 0 -25.5 7.5t-5.5 29.5v90q0 15 1 21.5t8 11t22 4.5h178 l-266 524q-8 11 -1 24zM147 426v90q0 15 1 21.5t8 11t22 4.5h996q20 0 25 -8t5 -29v-90q0 -16 -1.5 -22.5t-8 -10.5t-20.5 -4h-349v-354q0 -22 -8 -28.5t-35 -6.5h-217q-22 0 -31.5 7.5t-9.5 27.5v354h-346q-20 0 -25.5 7.5t-5.5 29.5z" />
<glyph unicode="&#xa6;" horiz-adv-x="548" d="M160 -295v838q0 21 9.5 30t31.5 9h157q27 0 35 -7.5t8 -31.5v-838q0 -26 -8 -34.5t-35 -8.5h-157q-41 0 -41 43zM160 729v842q0 22 9.5 31.5t31.5 9.5h157q27 0 35 -8.5t8 -32.5v-842q0 -24 -8 -32.5t-35 -8.5h-157q-22 0 -31.5 9.5t-9.5 31.5z" />
<glyph unicode="&#xa7;" horiz-adv-x="1275" d="M158 743q0 77 42.5 155t125.5 126q-56 83 -56 158q0 66 25.5 123.5t74 103t126.5 72t176 26.5q203 0 340 -63q20 -10 22.5 -21.5t-8.5 -36.5l-49 -122q-8 -22 -17 -26.5t-34 3.5q-115 43 -213 43q-160 0 -160 -92q0 -15 5 -30t18 -32.5t23.5 -30t33.5 -33.5t35 -31 t42 -34.5t40 -33.5q68 -55 106 -87.5t87.5 -77.5t76 -77.5t53 -71.5t37 -76.5t10.5 -76.5q0 -71 -45 -143t-121 -121q62 -91 62 -168q0 -64 -26 -120.5t-79 -102.5t-142.5 -72.5t-205.5 -26.5q-190 0 -332 74q-30 18 -12 51l57 133q7 20 17.5 24t32.5 -5q3 -1 18 -6.5t19 -7 t18 -6.5t19.5 -7t19 -5.5t21.5 -5t21.5 -4t24.5 -3.5t24.5 -2t27.5 -1q82 0 122.5 31t40.5 74q0 69 -163 199q-72 54 -119 91.5t-101.5 88.5t-86 93t-53 92t-21.5 99zM438 766q0 -52 56 -112q31 -33 155 -142q103 -93 148 -127q43 43 43 90q0 56 -36.5 101t-134.5 131 q-18 16 -28 24q-32 30 -84.5 74t-71.5 61q-47 -40 -47 -100z" />
<glyph unicode="&#xa8;" horiz-adv-x="1157" d="M246 1364q0 61 45.5 106.5t105.5 45.5q61 0 107.5 -45.5t46.5 -106.5q0 -60 -47 -105t-107 -45t-105.5 45t-45.5 105zM666 1364q0 61 45.5 106.5t107.5 45.5q61 0 106.5 -45t45.5 -107q0 -60 -46 -105t-106 -45q-61 0 -107 45t-46 105z" />
<glyph unicode="&#xa9;" horiz-adv-x="1712" d="M113 717q0 155 57 292t155 235t236.5 155t294.5 57q209 0 380 -96.5t268.5 -266t97.5 -376.5t-97.5 -376.5t-268.5 -266.5t-380 -97t-379.5 97t-267 266.5t-96.5 376.5zM258 717q0 -172 78 -309.5t214.5 -214t305.5 -76.5t305.5 76.5t214.5 214t78 309.5q0 170 -77.5 307 t-214.5 214t-306 77t-306 -77t-214.5 -214t-77.5 -307zM469 702q0 205 109 331t286 126q89 0 168.5 -36t124.5 -91q9 -16 8 -21t-14 -18l-61 -65q-12 -12 -19.5 -13.5t-26.5 11.5q-83 73 -178 73q-103 0 -156 -79.5t-53 -217.5q0 -134 53 -213t154 -79q98 0 172 71 q9 9 14 13.5t10 4t7 -1t9 -7t11 -9.5l72 -65q19 -17 0 -39q-45 -53 -124.5 -91t-168.5 -38q-180 0 -288.5 127t-108.5 327z" />
<glyph unicode="&#xaa;" horiz-adv-x="815" d="M55 762q0 111 77 175t228 64h138v11q0 41 -21.5 60.5t-83.5 19.5q-103 0 -192 -21q-18 -5 -32 -1t-19 22l-23 102q-4 18 2 27.5t27 17.5q104 37 266 37q307 0 307 -254v-379q0 -24 -7 -38t-30 -25q-121 -52 -303 -52q-334 0 -334 234zM289 776q0 -65 108 -65q66 0 101 10 v135h-97q-112 0 -112 -80z" />
<glyph unicode="&#xab;" horiz-adv-x="1179" d="M119 520q0 39 33 92l180 306q19 28 35.5 37.5t56.5 9.5h188q19 0 26 -13t-3 -32l-238 -402l252 -416q13 -22 5.5 -33.5t-31.5 -11.5h-187q-40 0 -57.5 9.5t-30.5 33.5l-198 332q-31 60 -31 88zM551 520q0 32 33 92l182 306q19 28 35.5 37.5t56.5 9.5h186q21 0 28 -13 t-5 -32l-236 -402l252 -416q13 -22 5.5 -33.5t-31.5 -11.5h-189q-39 0 -56 9.5t-30 33.5l-198 332q-33 64 -33 88z" />
<glyph unicode="&#xac;" d="M150 625v157q0 28 8 36.5t32 8.5h957q22 0 31.5 -8.5t9.5 -36.5v-557q0 -24 -9 -32.5t-36 -8.5h-168q-23 0 -33 9.5t-10 31.5v357h-742q-22 0 -31 9.5t-9 33.5z" />
<glyph unicode="&#xad;" horiz-adv-x="813" d="M104 514v184q0 26 7 34.5t30 8.5h521q23 0 29.5 -8t6.5 -35v-184q0 -24 -7.5 -33.5t-28.5 -9.5h-521q-21 0 -29 9.5t-8 33.5z" />
<glyph unicode="&#xae;" horiz-adv-x="1191" d="M109 979q0 206 142.5 345.5t348.5 139.5q208 0 345.5 -139t137.5 -346q0 -202 -142 -339.5t-345 -137.5q-207 0 -347 136.5t-140 340.5zM219 981q0 -160 108 -270.5t269 -110.5t268 108t107 273q0 162 -108 272.5t-267 110.5q-160 0 -268.5 -111t-108.5 -272zM395 737 v469q0 51 54 51h180q84 0 130 -43t46 -116q0 -42 -21.5 -78t-58.5 -53v-2q52 -17 66 -78l38 -148q4 -20 -12 -20h-88q-9 0 -13.5 0.5t-9 5t-6.5 12.5q-21 86 -34 131q-9 35 -27.5 50.5t-52.5 15.5h-68v-197q0 -12 -4 -15t-16 -3h-84q-19 0 -19 18zM518 1032h98q31 0 48.5 16 t17.5 42q0 25 -15 42t-49 17h-100v-117z" />
<glyph unicode="&#xaf;" horiz-adv-x="813" d="M92 1237v123q0 27 8.5 35t32.5 8h555q24 0 32.5 -8t8.5 -35v-123q0 -23 -9.5 -33t-31.5 -10h-555q-22 0 -31.5 10t-9.5 33z" />
<glyph unicode="&#xb0;" horiz-adv-x="944" d="M135 1104q0 144 97.5 239t244.5 95q146 0 244 -95t98 -239q0 -146 -99 -241t-245 -95t-243 94.5t-97 241.5zM311 1104q0 -76 47 -125t119 -49q74 0 121 49t47 125q0 74 -47.5 121t-120.5 47q-72 0 -119 -47.5t-47 -120.5z" />
<glyph unicode="&#xb1;" d="M150 39v166q0 26 8.5 33.5t34.5 7.5h948q24 0 32.5 -8t8.5 -33v-166q0 -23 -9.5 -32t-31.5 -9h-948q-22 0 -32.5 9t-10.5 32zM152 754v159q0 27 8.5 36t32.5 9h339v355q0 43 43 43h189q27 0 36 -9t9 -34v-355h338q25 0 34 -9t9 -36v-159q0 -43 -43 -43h-338v-355 q0 -25 -9 -34t-36 -9h-189q-43 0 -43 43v355h-339q-22 0 -31.5 10t-9.5 33z" />
<glyph unicode="&#xb2;" horiz-adv-x="870" d="M82 852q0 47 35.5 105.5t95.5 109.5q68 62 201 143q67 36 90.5 62.5t23.5 54.5q0 25 -23 41t-71 16q-93 0 -209 -63q-36 -22 -53 8l-55 96q-11 17 -9.5 30t19.5 24q65 46 149.5 72t165.5 26q147 0 237.5 -60t90.5 -178q0 -86 -55 -146.5t-162 -123.5q-136 -78 -193 -156 h373q27 0 33 -5.5t6 -28.5v-109q0 -24 -6 -31.5t-29 -7.5h-528q-63 0 -95 27.5t-32 93.5z" />
<glyph unicode="&#xb3;" horiz-adv-x="870" d="M69 826.5q-2 11.5 9 31.5l57 105q9 12 20 12.5t33 -10.5q103 -54 195 -54q72 0 109.5 27t37.5 72q0 80 -112 80h-45q-34 0 -44 9.5t-10 41.5v57q0 26 11.5 35.5t38.5 9.5h43q49 0 75.5 20t26.5 56q0 33 -28.5 48t-71.5 15q-91 0 -183 -45q-5 -2 -14.5 -6t-13 -5.5 t-10 -3.5t-9 -1t-7 2.5t-7.5 5.5t-6 10l-51 95q-11 19 -8.5 29.5t20.5 25.5q63 44 149 66t168 22q63 0 117 -12.5t98 -38.5t69.5 -70.5t25.5 -103.5q0 -52 -27 -99t-78 -75v-7q64 -24 92.5 -75t28.5 -111q0 -122 -99 -193t-263 -71q-84 0 -170 20.5t-144 59.5 q-21 14 -23 25.5z" />
<glyph unicode="&#xb4;" horiz-adv-x="1075" d="M354 1251l144 357q9 25 25 28t38 -6l195 -51q34 -9 16 -37l-240 -352q-11 -18 -22 -21.5t-25 2.5l-114 39q-30 9 -17 41z" />
<glyph unicode="&#xb5;" horiz-adv-x="1228" d="M133 -381v1419q0 22 9 30.5t34 8.5h211q27 0 35 -7.5t8 -31.5v-639q0 -70 18 -106.5t69.5 -54t152.5 -17.5q58 0 129 10v807q0 24 8 31.5t35 7.5h211q23 0 33 -8.5t10 -30.5v-866q0 -89 -31 -126t-115 -52q-111 -19 -256 -19q-164 0 -272 31v-387q0 -22 -8 -29.5 t-33 -7.5h-205q-24 0 -33.5 8t-9.5 29z" />
<glyph unicode="&#x3bc;" horiz-adv-x="1228" d="M133 -381v1419q0 22 9 30.5t34 8.5h211q27 0 35 -7.5t8 -31.5v-639q0 -70 18 -106.5t69.5 -54t152.5 -17.5q58 0 129 10v807q0 24 8 31.5t35 7.5h211q23 0 33 -8.5t10 -30.5v-866q0 -89 -31 -126t-115 -52q-111 -19 -256 -19q-164 0 -272 31v-387q0 -22 -8 -29.5 t-33 -7.5h-205q-24 0 -33.5 8t-9.5 29z" />
<glyph unicode="&#xb6;" horiz-adv-x="1196" d="M115 1044q0 165 108.5 279.5t284.5 114.5h174q29 0 29 -31v-719q0 -18 -6.5 -24.5t-22.5 -6.5h-174q-182 0 -287.5 109t-105.5 278zM539 -133q-4 30 26 35q145 18 198.5 73.5t53.5 165.5v1268q0 13 10.5 21t24.5 8h178q15 0 25 -8t10 -21v-1298q0 -210 -119 -313 t-350 -117h-5h-5h-5q-3 0 -4.5 0.5t-4 1.5t-4 2.5t-3 3.5t-2.5 5t-2 6.5t-2 8.5z" />
<glyph unicode="&#xb7;" horiz-adv-x="606" d="M115 600q0 76 55 130t133 54q80 0 134.5 -53t54.5 -131q0 -75 -55 -128.5t-134 -53.5q-78 0 -133 53t-55 129z" />
<glyph unicode="&#xb8;" horiz-adv-x="1054" d="M294.5 -458.5q-2.5 8.5 4.5 28.5l25 74q7 20 14.5 23t21.5 -3q85 -29 150 -29q106 0 106 70q0 64 -120 64h-12h-12h-8h-8q-2 0 -5.5 0.5t-5.5 1t-4.5 1.5t-4.5 2l-4 4q-2 1 -4 3q-17 15 -2 61l84 215q11 17 27 17h94q13 0 15 -7t-3 -12l-65 -166q139 -7 200.5 -61 t61.5 -129q0 -90 -69.5 -153.5t-213.5 -63.5q-62 0 -132.5 13.5t-113.5 31.5q-14 6 -16.5 14.5z" />
<glyph unicode="&#xb9;" horiz-adv-x="870" d="M160 1366v104q0 22 6 32t29 16l229 57q131 32 131 -74v-588h133q26 0 32.5 -6t6.5 -28v-109q0 -24 -7 -31.5t-32 -7.5h-487q-24 0 -30.5 7t-6.5 30v111q0 23 6 28.5t31 5.5h121v447l-121 -23q-23 -4 -32 3t-9 26z" />
<glyph unicode="&#xba;" horiz-adv-x="841" d="M55 903q0 173 97.5 273t267.5 100q178 0 272 -98.5t94 -274.5q0 -180 -93 -277.5t-275 -97.5q-363 0 -363 375zM295 905q0 -92 29.5 -138t93.5 -46q66 0 96.5 49t30.5 131q0 182 -123 182q-63 0 -95 -47t-32 -131z" />
<glyph unicode="&#xbb;" horiz-adv-x="1179" d="M96 68.5q-8 11.5 4 33.5l254 416l-237 402q-12 19 -5 32t27 13h189q40 0 57 -9.5t33 -37.5l182 -306q33 -60 33 -92q0 -24 -33 -88l-199 -332q-11 -23 -29 -33t-57 -10h-188q-23 0 -31 11.5zM529.5 68.5q-7.5 11.5 5.5 33.5l251 416l-235 402q-12 19 -5 32t27 13h187 q40 0 56.5 -9.5t35.5 -37.5l180 -306q35 -56 35 -92q0 -24 -33 -88l-198 -332q-13 -24 -30 -33.5t-56 -9.5h-189q-24 0 -31.5 11.5z" />
<glyph unicode="&#xbc;" horiz-adv-x="1986" d="M186 1182v104q0 21 6 31t29 16l230 58q131 32 131 -74v-588h133q26 0 32.5 -6.5t6.5 -28.5v-108q0 -24 -7 -31.5t-32 -7.5h-488q-24 0 -30.5 7t-6.5 30v110q0 23 6 29t31 6h121v447l-121 -23q-23 -4 -32 3t-9 26zM465.5 -55q-5.5 11 5.5 28l848 1442q10 19 18.5 25 t30.5 6h121q20 0 25.5 -10.5t-5.5 -30.5l-841 -1434q-21 -37 -70 -37h-104q-23 0 -28.5 11zM1016 233v43q0 52 35 93l350 411q19 22 31.5 33t39 22t60.5 11h74q46 0 65 -17.5t19 -64.5v-426h75q24 0 29.5 -7t5.5 -28v-110q0 -13 -1 -18.5t-8.5 -11t-23.5 -5.5h-77v-121 q0 -24 -9 -30.5t-32 -6.5h-154q-20 0 -28.5 7.5t-8.5 29.5v119h-350q-21 0 -33 1.5t-28 8t-23.5 23.5t-7.5 44zM1268 346l2 -8h188v223l-8 2z" />
<glyph unicode="&#xbd;" horiz-adv-x="1986" d="M147 1182v104q0 21 6 31t29 16l230 58q131 32 131 -74v-588h133q26 0 32.5 -6.5t6.5 -28.5v-108q0 -24 -7 -31.5t-32 -7.5h-488q-24 0 -30 7t-6 30v110q0 24 6 29.5t30 5.5h121v447l-121 -23q-23 -4 -32 3t-9 26zM434.5 -55q-5.5 11 5.5 28l848 1442q10 19 18.5 25 t30.5 6h121q20 0 26 -10.5t-5 -30.5l-842 -1434q-21 -37 -70 -37h-104q-23 0 -28.5 11zM1147 121q0 47 35.5 105.5t95.5 109.5q68 62 201 143q67 36 90.5 62.5t23.5 54.5q0 25 -23 41t-71 16q-93 0 -209 -63q-36 -22 -53 8l-55 96q-11 17 -9.5 30t19.5 24q65 46 149.5 72 t165.5 26q147 0 237.5 -60t90.5 -178q0 -86 -55 -146.5t-162 -123.5q-136 -78 -193 -156h373q27 0 33 -6t6 -29v-108q0 -24 -6 -31.5t-29 -7.5h-528q-63 0 -95 27.5t-32 93.5z" />
<glyph unicode="&#xbe;" horiz-adv-x="1986" d="M110 642q-2 12 9 32l57 104q9 12 20 12.5t33 -10.5q101 -53 195 -53q72 0 109.5 26.5t37.5 71.5q0 80 -112 80h-45q-34 0 -44 9.5t-10 41.5v58q0 26 11.5 35.5t38.5 9.5h43q49 0 75.5 20t26.5 56q0 33 -28.5 48t-71.5 15q-91 0 -183 -45q-5 -2 -14.5 -6t-13 -5.5 t-10 -3.5t-9 -1t-7 2.5t-7.5 5.5t-6 10l-51 94q-11 18 -8.5 29.5t20.5 26.5q63 44 149 66t168 22q63 0 117 -13t98 -39t69.5 -70.5t25.5 -103.5q0 -52 -27 -99t-78 -75v-6q64 -24 92.5 -75t28.5 -111q0 -122 -99.5 -193t-263.5 -71q-84 0 -169.5 20t-143.5 59q-21 14 -23 26 zM498 -27l848 1442q10 19 18.5 25t30.5 6h121q20 0 25.5 -10.5t-5.5 -30.5l-842 -1434q-11 -20 -26 -28.5t-43 -8.5h-105q-46 0 -22 39zM1092 233v43q0 54 34 93l351 411q19 22 31.5 33t39 22t60.5 11h73q46 0 65 -17.5t19 -64.5v-426h76q24 0 29.5 -7t5.5 -28v-110 q0 -13 -1 -18.5t-8.5 -11t-23.5 -5.5h-78v-121q0 -24 -9 -30.5t-32 -6.5h-153q-20 0 -28.5 7.5t-8.5 29.5v119h-350q-21 0 -33 1.5t-28 8t-23.5 23.5t-7.5 44zM1343 346l3 -8h188v223l-8 2z" />
<glyph unicode="&#xbf;" horiz-adv-x="1161" d="M104 -47q0 42 13 83.5t30.5 73t50 70t54.5 61.5t61 60q102 96 134 135q55 70 55 129v45q0 19 6.5 25t26.5 6h221q21 0 26.5 -7.5t5.5 -23.5v-65q0 -53 -16 -100.5t-48 -89t-59.5 -69.5t-70.5 -68q-13 -11 -19 -17q-65 -63 -97 -111t-32 -106q0 -48 44 -83.5t124 -35.5 q153 0 306 98q16 9 23 12t16 0.5t16 -14.5l96 -162q17 -30 -12 -49q-102 -77 -229.5 -115t-241.5 -38q-98 0 -182.5 20t-153.5 61t-108.5 111.5t-39.5 163.5zM465 901q0 75 55 125.5t133 50.5q79 0 133 -50t54 -126t-56 -128t-135 -52q-71 0 -127.5 48t-56.5 132z" />
<glyph unicode="&#xc0;" horiz-adv-x="1341" d="M29 41l426 1284q21 68 52 89.5t97 23.5h123q73 0 104.5 -20.5t55.5 -92.5l426 -1284q5 -14 -1 -27.5t-26 -13.5h-244q-26 0 -39.5 6.5t-19.5 26.5l-80 266h-469l-80 -260q-6 -22 -17.5 -30.5t-39.5 -8.5h-240q-20 0 -26.5 12t-1.5 29zM293 1734q-2 11 10 23l141 162 q17 13 26.5 11.5t23.5 -13.5l331 -258q11 -9 13.5 -16.5t0 -12t-9.5 -14.5l-77 -94q-11 -11 -20 -12.5t-30 6.5l-395 202q-12 5 -14 16zM508 553h321l-77 260l-76 293h-12l-78 -293z" />
<glyph unicode="&#xc1;" horiz-adv-x="1341" d="M29 41l426 1284q21 68 52 89.5t97 23.5h123q73 0 104.5 -20.5t55.5 -92.5l426 -1284q5 -14 -1 -27.5t-26 -13.5h-244q-26 0 -39.5 6.5t-19.5 26.5l-80 266h-469l-80 -260q-6 -22 -17.5 -30.5t-39.5 -8.5h-240q-20 0 -26.5 12t-1.5 29zM508 553h321l-77 260l-76 293h-12 l-78 -293zM508.5 1630.5q-2.5 4.5 0 12t13.5 16.5l332 258q14 12 23 13.5t26 -11.5l141 -162q12 -12 10 -23t-14 -16l-395 -202q-21 -8 -29.5 -6.5t-19.5 12.5l-78 94q-7 10 -9.5 14.5z" />
<glyph unicode="&#xc2;" horiz-adv-x="1341" d="M29 41l426 1284q21 68 52 89.5t97 23.5h123q73 0 104.5 -20.5t55.5 -92.5l426 -1284q5 -14 -1 -27.5t-26 -13.5h-244q-26 0 -39.5 6.5t-19.5 26.5l-80 266h-469l-80 -260q-6 -22 -17.5 -30.5t-39.5 -8.5h-240q-20 0 -26.5 12t-1.5 29zM249.5 1604.5q-0.5 9.5 12.5 23.5 l273 236q63 53 118 53q61 0 125 -53l277 -234q32 -25 4 -53l-58 -64q-18 -21 -57 3l-291 157l-282 -153q-19 -12 -29.5 -12t-26.5 16l-53 55q-12 16 -12.5 25.5zM508 553h321l-77 260l-76 293h-12l-78 -293z" />
<glyph unicode="&#xc3;" horiz-adv-x="1341" d="M29 41l426 1284q21 68 52 89.5t97 23.5h123q73 0 104.5 -20.5t55.5 -92.5l426 -1284q5 -14 -1 -27.5t-26 -13.5h-244q-26 0 -39.5 6.5t-19.5 26.5l-80 266h-469l-80 -260q-6 -22 -17.5 -30.5t-39.5 -8.5h-240q-20 0 -26.5 12t-1.5 29zM267 1603q-2 10 7 27 q87 174 244 174q53 0 143 -41t132 -41q31 0 53 15.5t43 50.5q12 21 18.5 24t24.5 -4l102 -34q19 -6 22 -15.5t-5 -29.5q-42 -95 -100 -147t-144 -52q-51 0 -145 42t-142 42q-54 0 -96 -64q-12 -19 -22 -23t-25 5l-90 51q-18 10 -20 20zM508 553h321l-77 260l-76 293h-12 l-78 -293z" />
<glyph unicode="&#xc4;" horiz-adv-x="1341" d="M29 41l426 1284q21 68 52 89.5t97 23.5h123q73 0 104.5 -20.5t55.5 -92.5l426 -1284q5 -14 -1 -27.5t-26 -13.5h-244q-26 0 -39.5 6.5t-19.5 26.5l-80 266h-469l-80 -260q-6 -22 -17.5 -30.5t-39.5 -8.5h-240q-20 0 -26.5 12t-1.5 29zM305 1663q0 61 46 106.5t106 45.5 t106.5 -45.5t46.5 -106.5q0 -60 -46.5 -105t-106.5 -45t-106 45t-46 105zM508 553h321l-77 260l-76 293h-12l-78 -293zM725 1663q0 61 46 106.5t108 45.5q61 0 106 -45t45 -107q0 -60 -45.5 -105t-105.5 -45q-62 0 -108 45t-46 105z" />
<glyph unicode="&#xc5;" horiz-adv-x="1341" d="M29 41l426 1284q21 68 52 89.5t97 23.5h123q73 0 104.5 -20.5t55.5 -92.5l426 -1284q5 -14 -1 -27.5t-26 -13.5h-244q-26 0 -39.5 6.5t-19.5 26.5l-80 266h-469l-80 -260q-6 -22 -17.5 -30.5t-39.5 -8.5h-240q-20 0 -26.5 12t-1.5 29zM416 1710q0 104 73 173t179 69 q108 0 181 -68.5t73 -173.5t-73 -173.5t-181 -68.5q-107 0 -179.5 68t-72.5 174zM508 553h321l-77 260l-76 293h-12l-78 -293zM569 1710q0 -45 28 -73.5t71 -28.5q42 0 71 28t29 74q0 43 -28.5 71.5t-71.5 28.5t-71 -28.5t-28 -71.5z" />
<glyph unicode="&#xc6;" horiz-adv-x="1894" d="M32 10.5q-7 10.5 1 30.5l377 1108q54 158 148 222.5t267 64.5h942q23 0 30 -8.5t7 -36.5v-183q0 -23 -7.5 -32t-29.5 -9h-483q-76 0 -106.5 -35t-30.5 -98v-151h559q23 0 30 -8.5t7 -36.5v-168q0 -24 -8 -33.5t-29 -9.5h-559v-228q0 -69 34.5 -99t102.5 -30h508 q23 0 30 -8.5t7 -36.5v-182q0 -24 -8 -33.5t-29 -9.5h-594q-185 0 -265.5 70.5t-94.5 230.5h-394l-86 -262q-6 -22 -17 -30.5t-36 -8.5h-248q-18 0 -25 10.5zM516 545h322v514q0 84 16 125q-77 0 -114 -25.5t-52 -73.5l-72 -217z" />
<glyph unicode="&#xc7;" horiz-adv-x="1316" d="M113 709q0 334 182 539.5t477 205.5q242 0 402 -88q16 -8 22 -16t4.5 -20.5t-10.5 -35.5l-64 -141q-11 -29 -21 -34.5t-40 3.5q-151 54 -279 54q-164 0 -255 -130.5t-91 -336.5q0 -104 18.5 -183t59 -140.5t110.5 -93.5t167 -32q60 0 124 13t95 24t96 35q30 11 42.5 5 t21.5 -30l69 -147q13 -30 10 -43.5t-22 -24.5q-175 -108 -428 -115l-35 -88q139 -7 200.5 -61t61.5 -129q0 -90 -69 -153.5t-213 -63.5q-62 0 -132.5 13.5t-113.5 31.5q-15 6 -17 14.5t4 28.5l25 74q7 20 15 23t22 -3q85 -29 149 -29q107 0 107 70q0 64 -121 64h-12h-12h-8 h-8q-2 0 -5.5 0.5t-5.5 1t-4.5 1.5t-4.5 2l-4 4q-2 1 -4 3q-17 15 -2 61l54 140q-282 26 -419.5 213.5t-137.5 513.5z" />
<glyph unicode="&#xc8;" horiz-adv-x="1255" d="M154 377v680q0 76 20.5 142t63.5 120.5t117.5 85.5t174.5 31h588q24 0 31.5 -10t7.5 -40v-174q0 -26 -8 -35.5t-31 -9.5h-520q-74 0 -103.5 -33.5t-29.5 -93.5v-157h588q24 0 31.5 -9.5t7.5 -39.5v-160q0 -26 -7.5 -36.5t-31.5 -10.5h-588v-234q0 -68 32.5 -95.5 t100.5 -27.5h541q26 0 33.5 -9t7.5 -40v-174q0 -26 -8.5 -36.5t-32.5 -10.5h-607q-88 0 -155.5 21.5t-109 57t-67.5 86t-36 101.5t-10 111zM348 1734q-2 11 10 23l142 162q17 13 26 11.5t23 -13.5l332 -258q11 -9 13.5 -16.5t0 -12t-9.5 -14.5l-78 -94q-11 -11 -19.5 -12.5 t-29.5 6.5l-396 202q-12 5 -14 16z" />
<glyph unicode="&#xc9;" horiz-adv-x="1255" d="M154 377v680q0 76 20.5 142t63.5 120.5t117.5 85.5t174.5 31h588q24 0 31.5 -10t7.5 -40v-174q0 -26 -8 -35.5t-31 -9.5h-520q-74 0 -103.5 -33.5t-29.5 -93.5v-157h588q24 0 31.5 -9.5t7.5 -39.5v-160q0 -26 -7.5 -36.5t-31.5 -10.5h-588v-234q0 -68 32.5 -95.5 t100.5 -27.5h541q26 0 33.5 -9t7.5 -40v-174q0 -26 -8.5 -36.5t-32.5 -10.5h-607q-88 0 -155.5 21.5t-109 57t-67.5 86t-36 101.5t-10 111zM516.5 1630.5q-2.5 4.5 0 12t13.5 16.5l332 258q14 12 23 13.5t26 -11.5l142 -162q12 -12 10 -23t-14 -16l-396 -202 q-21 -8 -29.5 -6.5t-19.5 12.5l-78 94q-7 10 -9.5 14.5z" />
<glyph unicode="&#xca;" horiz-adv-x="1255" d="M154 377v680q0 76 20.5 142t63.5 120.5t117.5 85.5t174.5 31h588q24 0 31.5 -10t7.5 -40v-174q0 -26 -8 -35.5t-31 -9.5h-520q-74 0 -103.5 -33.5t-29.5 -93.5v-157h588q24 0 31.5 -9.5t7.5 -39.5v-160q0 -26 -7.5 -36.5t-31.5 -10.5h-588v-234q0 -68 32.5 -95.5 t100.5 -27.5h541q26 0 33.5 -9t7.5 -40v-174q0 -26 -8.5 -36.5t-32.5 -10.5h-607q-88 0 -155.5 21.5t-109 57t-67.5 86t-36 101.5t-10 111zM298.5 1604.5q-0.5 9.5 12.5 23.5l273 236q63 53 118 53q61 0 125 -53l277 -234q32 -25 4 -53l-57 -64q-19 -21 -58 3l-291 157 l-282 -153q-19 -12 -29 -12t-26 16l-54 55q-12 16 -12.5 25.5z" />
<glyph unicode="&#xcb;" horiz-adv-x="1255" d="M154 377v680q0 76 20.5 142t63.5 120.5t117.5 85.5t174.5 31h588q24 0 31.5 -10t7.5 -40v-174q0 -26 -8 -35.5t-31 -9.5h-520q-74 0 -103.5 -33.5t-29.5 -93.5v-157h588q24 0 31.5 -9.5t7.5 -39.5v-160q0 -26 -7.5 -36.5t-31.5 -10.5h-588v-234q0 -68 32.5 -95.5 t100.5 -27.5h541q26 0 33.5 -9t7.5 -40v-174q0 -26 -8.5 -36.5t-32.5 -10.5h-607q-88 0 -155.5 21.5t-109 57t-67.5 86t-36 101.5t-10 111zM362 1663q0 61 46 106.5t106 45.5q61 0 107.5 -45.5t46.5 -106.5q0 -60 -47 -105t-107 -45t-106 45t-46 105zM782 1663 q0 61 46 106.5t108 45.5q61 0 106 -45t45 -107q0 -60 -45.5 -105t-105.5 -45q-62 0 -108 45t-46 105z" />
<glyph unicode="&#xcc;" horiz-adv-x="673" d="M-57 1734q-2 11 10 23l141 162q17 13 26 11.5t23 -13.5l332 -258q11 -9 13.5 -16.5t0 -12t-9.5 -14.5l-78 -94q-11 -11 -19.5 -12.5t-29.5 6.5l-395 202q-12 5 -14 16zM180 43v1348q0 24 11 33.5t36 9.5h217q31 0 40.5 -8.5t9.5 -34.5v-1348q0 -26 -9.5 -34.5t-40.5 -8.5 h-217q-25 0 -36 9.5t-11 33.5z" />
<glyph unicode="&#xcd;" horiz-adv-x="673" d="M168.5 1630.5q-2.5 4.5 0 12t13.5 16.5l332 258q14 12 23 13.5t26 -11.5l142 -162q11 -12 9.5 -23t-14.5 -16l-395 -202q-21 -8 -29.5 -6.5t-19.5 12.5l-78 94q-7 10 -9.5 14.5zM180 43v1348q0 24 11 33.5t36 9.5h217q31 0 40.5 -8.5t9.5 -34.5v-1348q0 -26 -9.5 -34.5 t-40.5 -8.5h-217q-25 0 -36 9.5t-11 33.5z" />
<glyph unicode="&#xce;" horiz-adv-x="673" d="M-67.5 1604.5q-0.5 9.5 12.5 23.5l272 236q63 53 119 53q61 0 125 -53l276 -234q32 -25 4 -53l-57 -64q-18 -21 -57 3l-291 157l-283 -153q-19 -12 -29 -12t-26 16l-53 55q-12 16 -12.5 25.5zM180 43v1348q0 24 11 33.5t36 9.5h217q31 0 40.5 -8.5t9.5 -34.5v-1348 q0 -26 -9.5 -34.5t-40.5 -8.5h-217q-25 0 -36 9.5t-11 33.5z" />
<glyph unicode="&#xcf;" horiz-adv-x="673" d="M-23 1669q0 61 46 106.5t106 45.5q61 0 107.5 -45.5t46.5 -106.5q0 -60 -47 -104.5t-107 -44.5t-106 44.5t-46 104.5zM180 43v1348q0 24 11 33.5t36 9.5h217q31 0 40.5 -8.5t9.5 -34.5v-1348q0 -26 -9.5 -34.5t-40.5 -8.5h-217q-25 0 -36 9.5t-11 33.5zM397 1669 q0 61 46 106.5t108 45.5q61 0 106 -45t45 -107q0 -60 -45.5 -104.5t-105.5 -44.5q-62 0 -108 44.5t-46 104.5z" />
<glyph unicode="&#xd0;" horiz-adv-x="1427" d="M29 672v110q0 26 8.5 34.5t32.5 8.5h84v484q0 66 31.5 96.5t103.5 30.5h370q140 0 252 -37.5t186.5 -102t124 -155.5t71.5 -194t22 -222t-19 -221.5t-65 -197t-117 -161t-181 -106t-251 -39.5h-393q-73 0 -104 29t-31 96v504h-84q-22 0 -31.5 10t-9.5 33zM467 274h164 q84 0 147.5 22t104 60.5t65.5 97t35 123.5t10 148q0 100 -17 175t-57 136.5t-114 94t-180 32.5h-158v-338h238q22 0 30 -8.5t8 -34.5v-110q0 -24 -8.5 -33.5t-29.5 -9.5h-238v-355z" />
<glyph unicode="&#xd1;" horiz-adv-x="1523" d="M154 43v1249q0 80 29 112t104 32h86q61 0 89.5 -17t63.5 -76l348 -530l177 -276h10v856q0 25 9 34t38 9h215q26 0 36.5 -10t10.5 -33v-1252q0 -70 -29 -105.5t-104 -35.5h-86q-62 0 -90.5 16.5t-63.5 73.5l-327 496l-197 305h-10v-848q0 -26 -9 -34.5t-38 -8.5h-215 q-25 0 -36 9.5t-11 33.5zM368 1617.5q-2 10.5 7 27.5q42 83 99.5 128.5t143.5 45.5q53 0 143 -41t132 -41q32 0 53.5 15t42.5 50q12 21 18 24t25 -3l103 -35q19 -6 22 -15.5t-6 -29.5q-42 -95 -100 -147t-144 -52q-51 0 -145 42t-141 42q-56 0 -97 -63q-12 -19 -22 -23.5 t-25 4.5l-90 51q-17 10 -19 20.5z" />
<glyph unicode="&#xd2;" horiz-adv-x="1495" d="M113 715q0 345 169 543t463 198q313 0 475 -194t162 -541q0 -359 -159 -551.5t-484 -192.5q-313 0 -469.5 190t-156.5 548zM381 1740q-2 11 10 23l141 162q17 13 26.5 11.5t23.5 -13.5l331 -258q16 -15 15.5 -22t-10.5 -21l-78 -94q-11 -11 -19.5 -12.5t-29.5 6.5 l-396 202q-12 5 -14 16zM438 727q0 -112 15.5 -195t51 -146.5t97 -95.5t148.5 -32q85 0 147 37t95.5 102.5t49 144t15.5 173.5q-1 80 -9 144t-29 125.5t-54.5 102.5t-88.5 66t-128 25q-101 0 -172.5 -62.5t-104.5 -162.5t-33 -226z" />
<glyph unicode="&#xd3;" horiz-adv-x="1495" d="M113 715q0 345 169 543t463 198q313 0 475 -194t162 -541q0 -359 -159 -551.5t-484 -192.5q-313 0 -469.5 190t-156.5 548zM438 727q0 -112 15.5 -195t51 -146.5t97 -95.5t148.5 -32q85 0 147 37t95.5 102.5t49 144t15.5 173.5q-1 80 -9 144t-29 125.5t-54.5 102.5 t-88.5 66t-128 25q-101 0 -172.5 -62.5t-104.5 -162.5t-33 -226zM613.5 1642.5q-2.5 4.5 0 12t13.5 16.5l331 258q14 12 23.5 13.5t26.5 -11.5l141 -162q12 -12 10 -22.5t-14 -15.5l-395 -203q-21 -8 -30 -6.5t-20 12.5l-77 94q-7 10 -9.5 14.5z" />
<glyph unicode="&#xd4;" horiz-adv-x="1495" d="M113 715q0 345 169 543t463 198q313 0 475 -194t162 -541q0 -359 -159 -551.5t-484 -192.5q-313 0 -469.5 190t-156.5 548zM331.5 1604.5q-0.5 9.5 12.5 23.5l272 236q63 53 119 53q61 0 125 -53l277 -234q32 -25 4 -53l-58 -64q-18 -21 -57 3l-291 157l-282 -153 q-19 -12 -29.5 -12t-26.5 16l-53 55q-12 16 -12.5 25.5zM438 727q0 -112 15.5 -195t51 -146.5t97 -95.5t148.5 -32q85 0 147 37t95.5 102.5t49 144t15.5 173.5q-1 80 -9 144t-29 125.5t-54.5 102.5t-88.5 66t-128 25q-101 0 -172.5 -62.5t-104.5 -162.5t-33 -226z" />
<glyph unicode="&#xd5;" horiz-adv-x="1495" d="M113 715q0 345 169 543t463 198q313 0 475 -194t162 -541q0 -359 -159 -551.5t-484 -192.5q-313 0 -469.5 190t-156.5 548zM358 1615q-2 10 7 27q87 175 243 175q53 0 143 -41t132 -41q32 0 53.5 15t42.5 50q12 21 18 24t25 -3l102 -35q19 -6 22 -15.5t-5 -29.5 q-42 -95 -100 -147t-144 -52q-51 0 -145 42t-142 42q-55 0 -96 -63q-12 -19 -22 -23.5t-25 4.5l-90 51q-17 10 -19 20zM438 727q0 -112 15.5 -195t51 -146.5t97 -95.5t148.5 -32q85 0 147 37t95.5 102.5t49 144t15.5 173.5q-1 80 -9 144t-29 125.5t-54.5 102.5t-88.5 66 t-128 25q-101 0 -172.5 -62.5t-104.5 -162.5t-33 -226z" />
<glyph unicode="&#xd6;" horiz-adv-x="1495" d="M113 715q0 345 169 543t463 198q313 0 475 -194t162 -541q0 -359 -159 -551.5t-484 -192.5q-313 0 -469.5 190t-156.5 548zM387 1673q0 61 46 106.5t106 45.5t106.5 -45.5t46.5 -106.5q0 -60 -46.5 -104.5t-106.5 -44.5t-106 44.5t-46 104.5zM438 727q0 -112 15.5 -195 t51 -146.5t97 -95.5t148.5 -32q85 0 147 37t95.5 102.5t49 144t15.5 173.5q-1 80 -9 144t-29 125.5t-54.5 102.5t-88.5 66t-128 25q-101 0 -172.5 -62.5t-104.5 -162.5t-33 -226zM807 1673q0 61 46 106.5t108 45.5q61 0 106 -45t45 -107q0 -60 -45.5 -104.5t-105.5 -44.5 q-62 0 -108 44.5t-46 104.5z" />
<glyph unicode="&#xd7;" d="M215 367q-29 29 0 59l279 279l-275 274q-32 32 0 59l113 113q20 20 31.5 20t29.5 -18l275 -276l276 278q30 30 60 0l116 -115q18 -22 18 -32.5t-18 -28.5l-276 -277l272 -272q18 -19 18 -31t-20 -32l-110 -113q-32 -28 -60 0l-274 274l-279 -278q-18 -18 -29.5 -18 t-31.5 20z" />
<glyph unicode="&#xd8;" horiz-adv-x="1495" d="M113 715q0 345 169 543t463 198q251 0 410 -131l86 107q23 34 47 10l43 -35q13 -11 13.5 -19t-13.5 -26l-96 -119q147 -191 147 -522q0 -359 -159 -551.5t-484 -192.5q-268 0 -420 140l-90 -109q-13 -16 -22 -17t-19 9l-45 37q-13 11 -13 18.5t13 26.5l99 121 q-129 187 -129 512zM438 727q0 -156 33 -246l487 609q-75 88 -210 88q-101 0 -172.5 -62.5t-104.5 -162.5t-33 -226zM522 362q75 -104 232 -104q85 0 146 36.5t94.5 103t48 144t14.5 173.5q-3 166 -41 264z" />
<glyph unicode="&#xd9;" horiz-adv-x="1468" d="M152 1391q0 24 11.5 33.5t35.5 9.5h219q31 0 40 -8.5t9 -34.5v-813q0 -88 14.5 -147t51 -101.5t100 -62t160.5 -19.5q131 0 213 16v1127q0 24 11 33.5t36 9.5h217q30 0 37.5 -8t7.5 -35v-1192q0 -77 -34 -126.5t-116 -70.5q-118 -27 -350 -27q-182 0 -303 29.5 t-203.5 101.5t-118.5 191t-36 299zM377 1734q-2 11 10 23l141 162q17 13 26.5 11.5t23.5 -13.5l331 -258q11 -9 13.5 -16.5t0 -12t-9.5 -14.5l-77 -94q-11 -11 -20 -12.5t-30 6.5l-395 202q-12 5 -14 16z" />
<glyph unicode="&#xda;" horiz-adv-x="1468" d="M152 1391q0 24 11.5 33.5t35.5 9.5h219q31 0 40 -8.5t9 -34.5v-813q0 -88 14.5 -147t51 -101.5t100 -62t160.5 -19.5q131 0 213 16v1127q0 24 11 33.5t36 9.5h217q30 0 37.5 -8t7.5 -35v-1192q0 -77 -34 -126.5t-116 -70.5q-118 -27 -350 -27q-182 0 -303 29.5 t-203.5 101.5t-118.5 191t-36 299zM578.5 1630.5q-2.5 4.5 0 12t13.5 16.5l332 258q14 12 23 13.5t26 -11.5l141 -162q12 -12 10 -23t-14 -16l-395 -202q-21 -8 -29.5 -6.5t-19.5 12.5l-78 94q-7 10 -9.5 14.5z" />
<glyph unicode="&#xdb;" horiz-adv-x="1468" d="M152 1391q0 24 11.5 33.5t35.5 9.5h219q31 0 40 -8.5t9 -34.5v-813q0 -88 14.5 -147t51 -101.5t100 -62t160.5 -19.5q131 0 213 16v1127q0 24 11 33.5t36 9.5h217q30 0 37.5 -8t7.5 -35v-1192q0 -77 -34 -126.5t-116 -70.5q-118 -27 -350 -27q-182 0 -303 29.5 t-203.5 101.5t-118.5 191t-36 299zM335.5 1604.5q-0.5 9.5 12.5 23.5l273 236q63 53 118 53q61 0 125 -53l277 -234q32 -25 4 -53l-58 -64q-18 -21 -57 3l-291 157l-282 -153q-19 -12 -29.5 -12t-26.5 16l-53 55q-12 16 -12.5 25.5z" />
<glyph unicode="&#xdc;" horiz-adv-x="1468" d="M152 1391q0 24 11.5 33.5t35.5 9.5h219q31 0 40 -8.5t9 -34.5v-813q0 -88 14.5 -147t51 -101.5t100 -62t160.5 -19.5q131 0 213 16v1127q0 24 11 33.5t36 9.5h217q30 0 37.5 -8t7.5 -35v-1192q0 -77 -34 -126.5t-116 -70.5q-118 -27 -350 -27q-182 0 -303 29.5 t-203.5 101.5t-118.5 191t-36 299zM387 1663q0 61 46 106.5t106 45.5t106.5 -45.5t46.5 -106.5q0 -60 -46.5 -105t-106.5 -45t-106 45t-46 105zM807 1663q0 61 46 106.5t108 45.5q61 0 106 -45t45 -107q0 -60 -45.5 -105t-105.5 -45q-62 0 -108 45t-46 105z" />
<glyph unicode="&#xdd;" horiz-adv-x="1280" d="M19 1422q7 14 28 14h258q28 0 40.5 -9.5t21.5 -35.5l137 -285l131 -293h12l135 303l136 281q9 21 21 30t34 9h260q43 0 24 -37l-456 -871v-487q0 -24 -8.5 -32.5t-36.5 -8.5h-224q-23 0 -33 9.5t-10 31.5v483l-469 873q-8 11 -1 25zM484.5 1630.5q-2.5 4.5 0 12 t13.5 16.5l331 258q14 12 23.5 13.5t26.5 -11.5l141 -162q12 -12 10 -23t-14 -16l-395 -202q-21 -8 -30 -6.5t-20 12.5l-77 94q-7 10 -9.5 14.5z" />
<glyph unicode="&#xde;" horiz-adv-x="1318" d="M154 39v1366q0 22 9.5 31.5t31.5 9.5h213q28 0 36.5 -8.5t8.5 -32.5v-193h325q218 0 347.5 -124.5t129.5 -321.5q0 -48 -8 -97t-36.5 -113.5t-74 -114.5t-128.5 -89.5t-193 -48.5q-53 -6 -110 -6h-238v-258q0 -23 -8 -31t-33 -8h-219q-17 0 -27.5 1.5t-19.5 11t-6 26.5z M467 551h266q99 0 150 53t51 139q0 33 -9 64t-30 62t-63.5 50t-102.5 19h-262v-387z" />
<glyph unicode="&#xdf;" horiz-adv-x="1236" d="M135 49v959q-1 225 129.5 359t343.5 134q224 0 346.5 -109t122.5 -280q0 -77 -39.5 -159t-122.5 -124v-8q99 -36 164.5 -138.5t65.5 -231.5q0 -136 -44 -239t-119 -161.5t-165.5 -85.5t-193.5 -24q-40 1 -49 7.5t-9 31.5v161q0 22 6.5 30t30.5 11q112 6 172 77.5 t60 189.5q0 106 -48.5 174.5t-154.5 72.5q-43 3 -60.5 19t-17.5 53v72q0 37 19.5 59.5t58.5 22.5q68 0 107.5 46.5t39.5 123.5q0 65 -41 115t-127 50q-89 0 -133.5 -62.5t-44.5 -152.5v-993q0 -28 -9 -38.5t-40 -10.5h-209q-25 0 -32 11t-7 38z" />
<glyph unicode="&#xe0;" horiz-adv-x="1179" d="M92 319q0 165 110 266t322 101h226v33q0 67 -37.5 106t-141.5 39q-61 0 -145 -11.5t-143 -27.5q-26 -6 -36.5 0t-15.5 27l-32 143q-5 22 -0.5 31.5t20.5 15.5q174 62 395 62q433 0 433 -377v-594q0 -30 -8 -48t-35 -32q-164 -76 -435 -76q-134 0 -229.5 25.5t-148 73.5 t-76 107.5t-23.5 135.5zM332.5 1564q3.5 12 19.5 15l213 53q22 4 31 -1.5t16 -20.5l142 -359q7 -21 2.5 -27.5t-21.5 -11.5l-112 -41q-29 -9 -48 19l-237 352q-9 10 -5.5 22zM399 342q0 -129 179 -129q98 0 170 27v247h-162q-187 0 -187 -145z" />
<glyph unicode="&#xe1;" horiz-adv-x="1179" d="M92 319q0 165 110 266t322 101h226v33q0 67 -37.5 106t-141.5 39q-61 0 -145 -11.5t-143 -27.5q-26 -6 -36.5 0t-15.5 27l-32 143q-5 22 -0.5 31.5t20.5 15.5q174 62 395 62q433 0 433 -377v-594q0 -30 -8 -48t-35 -32q-164 -76 -435 -76q-134 0 -229.5 25.5t-148 73.5 t-76 107.5t-23.5 135.5zM399 342q0 -129 179 -129q98 0 170 27v247h-162q-187 0 -187 -145zM496 1251l143 357q9 25 25 28t38 -6l195 -51q34 -9 16 -37l-239 -352q-11 -18 -22 -21.5t-25 2.5l-115 39q-29 9 -16 41z" />
<glyph unicode="&#xe2;" horiz-adv-x="1179" d="M92 319q0 165 110 266t322 101h226v33q0 67 -37.5 106t-141.5 39q-61 0 -145 -11.5t-143 -27.5q-26 -6 -36.5 0t-15.5 27l-32 143q-5 22 -0.5 31.5t20.5 15.5q174 62 395 62q433 0 433 -377v-594q0 -30 -8 -48t-35 -32q-164 -76 -435 -76q-134 0 -229.5 25.5t-148 73.5 t-76 107.5t-23.5 135.5zM205.5 1246.5q0.5 9.5 11.5 25.5l268 280q61 64 121 64q43 0 72 -14.5t61 -49.5l273 -278q16 -18 15 -28.5t-17 -26.5l-60 -58q-13 -11 -25 -10t-32 14l-285 201l-274 -205q-15 -11 -26.5 -10t-28.5 14l-62 58q-12 14 -11.5 23.5zM399 342 q0 -129 179 -129q98 0 170 27v247h-162q-187 0 -187 -145z" />
<glyph unicode="&#xe3;" horiz-adv-x="1179" d="M92 319q0 165 110 266t322 101h226v33q0 67 -37.5 106t-141.5 39q-61 0 -145 -11.5t-143 -27.5q-26 -6 -36.5 0t-15.5 27l-32 143q-5 22 -0.5 31.5t20.5 15.5q174 62 395 62q433 0 433 -377v-594q0 -30 -8 -48t-35 -32q-164 -76 -435 -76q-134 0 -229.5 25.5t-148 73.5 t-76 107.5t-23.5 135.5zM202 1312q-2 10 7 27q87 174 244 174q53 0 142.5 -40.5t131.5 -40.5q32 0 53.5 15t42.5 50q12 21 18 24t25 -3l103 -35q19 -6 22 -15.5t-6 -29.5q-42 -95 -100 -147t-144 -52q-51 0 -145 42t-141 42q-56 0 -97 -63q-12 -19 -22 -23.5t-25 4.5l-90 51 q-17 10 -19 20zM399 342q0 -129 179 -129q98 0 170 27v247h-162q-187 0 -187 -145z" />
<glyph unicode="&#xe4;" horiz-adv-x="1179" d="M92 319q0 165 110 266t322 101h226v33q0 67 -37.5 106t-141.5 39q-61 0 -145 -11.5t-143 -27.5q-26 -6 -36.5 0t-15.5 27l-32 143q-5 22 -0.5 31.5t20.5 15.5q174 62 395 62q433 0 433 -377v-594q0 -30 -8 -48t-35 -32q-164 -76 -435 -76q-134 0 -229.5 25.5t-148 73.5 t-76 107.5t-23.5 135.5zM250 1374q0 61 45.5 106.5t105.5 45.5q61 0 107.5 -45.5t46.5 -106.5q0 -60 -47 -104.5t-107 -44.5t-105.5 44.5t-45.5 104.5zM399 342q0 -129 179 -129q98 0 170 27v247h-162q-187 0 -187 -145zM670 1374q0 61 45.5 106.5t107.5 45.5 q61 0 106.5 -45t45.5 -107q0 -60 -46 -104.5t-106 -44.5q-62 0 -107.5 44.5t-45.5 104.5z" />
<glyph unicode="&#xe5;" horiz-adv-x="1179" d="M92 319q0 165 110 266t322 101h226v33q0 67 -37.5 106t-141.5 39q-61 0 -145 -11.5t-143 -27.5q-26 -6 -36.5 0t-15.5 27l-32 143q-5 22 -0.5 31.5t20.5 15.5q174 62 395 62q433 0 433 -377v-594q0 -30 -8 -48t-35 -32q-164 -76 -435 -76q-134 0 -229.5 25.5t-148 73.5 t-76 107.5t-23.5 135.5zM367 1407q0 104 72.5 173t178.5 69q108 0 181 -68.5t73 -173.5t-73 -173.5t-181 -68.5q-107 0 -179 68t-72 174zM399 342q0 -129 179 -129q98 0 170 27v247h-162q-187 0 -187 -145zM520 1407q0 -45 27.5 -73.5t70.5 -28.5t72 28t29 74q0 43 -29 71.5 t-72 28.5t-70.5 -28.5t-27.5 -71.5z" />
<glyph unicode="&#xe6;" horiz-adv-x="1804" d="M92 311q0 159 104 257t310 98h233q9 40 9 51q3 145 -187 145q-145 0 -289 -37q-22 -6 -33.5 -1t-15.5 26l-33 145q-4 20 0.5 29.5t20.5 15.5q180 64 393 64q225 0 324 -117q123 117 313 117q225 0 350 -117t125 -299q0 -107 -53.5 -166t-163.5 -59h-459q2 -72 21 -120 t54 -72t75 -33t96 -9q103 0 236 50q23 10 33.5 7.5t17.5 -20.5l63 -147q7 -19 3.5 -28.5t-19.5 -20.5q-70 -46 -170 -69.5t-195 -23.5q-217 0 -327 99q-83 -50 -191.5 -74.5t-210.5 -24.5q-99 0 -175.5 18t-124.5 48.5t-79 74t-43 90.5t-12 103zM399 334q0 -123 172 -123 q122 0 203 43q-37 91 -43 219h-158q-174 0 -174 -139zM1047 659h383q-2 39 -11 71.5t-28.5 62.5t-56.5 47.5t-87 17.5q-83 0 -137.5 -54.5t-62.5 -144.5z" />
<glyph unicode="&#xe7;" horiz-adv-x="1046" d="M92 535q0 262 137.5 414.5t372.5 152.5q181 0 324 -70q26 -12 29.5 -22t-7.5 -35l-57 -158q-8 -22 -22.5 -24.5t-41.5 6.5q-113 37 -202 37q-114 0 -169 -84.5t-55 -216.5q0 -90 19 -151.5t71.5 -100.5t139.5 -39q114 0 235 47q26 10 36.5 6.5t17.5 -25.5l57 -153 q10 -19 8 -33t-22 -25q-137 -76 -345 -84l-34 -88q139 -7 200.5 -61t61.5 -129q0 -90 -69.5 -153.5t-213.5 -63.5q-62 0 -132.5 13.5t-113.5 31.5q-14 6 -16.5 14.5t4.5 28.5l25 74q7 20 15 23t22 -3q85 -29 149 -29q107 0 107 70q0 64 -121 64h-12h-12h-8h-8q-2 0 -5.5 0.5 t-5.5 1t-4.5 1.5t-4.5 2l-4 4q-2 1 -4 3q-17 15 -2 61l55 144q-194 26 -294.5 164.5t-100.5 384.5z" />
<glyph unicode="&#xe8;" horiz-adv-x="1163" d="M92 532q0 273 142.5 421.5t388.5 148.5q108 0 195.5 -32.5t144 -89.5t86.5 -131.5t30 -160.5q0 -113 -54.5 -173t-184.5 -60h-439q4 -123 69 -174.5t177 -51.5q118 0 252 56q25 10 34 6.5t17 -21.5l64 -147q12 -30 -19 -49q-70 -46 -177 -71.5t-200 -25.5 q-268 0 -397 134.5t-129 420.5zM299.5 1564q3.5 12 19.5 15l213 53q22 4 31.5 -1.5t16.5 -20.5l141 -359q7 -21 2.5 -27.5t-21.5 -11.5l-112 -41q-15 -5 -25 -1.5t-22 20.5l-238 352q-9 10 -5.5 22zM408 649h383q-2 100 -42.5 153.5t-142.5 53.5q-83 0 -136.5 -57 t-61.5 -150z" />
<glyph unicode="&#xe9;" horiz-adv-x="1163" d="M92 532q0 273 142.5 421.5t388.5 148.5q108 0 195.5 -32.5t144 -89.5t86.5 -131.5t30 -160.5q0 -113 -54.5 -173t-184.5 -60h-439q4 -123 69 -174.5t177 -51.5q118 0 252 56q25 10 34 6.5t17 -21.5l64 -147q12 -30 -19 -49q-70 -46 -177 -71.5t-200 -25.5 q-268 0 -397 134.5t-129 420.5zM408 649h383q-2 100 -42.5 153.5t-142.5 53.5q-83 0 -136.5 -57t-61.5 -150zM483 1251l144 357q9 25 25 28t38 -6l195 -51q34 -9 16 -37l-239 -352q-11 -18 -22.5 -21.5t-25.5 2.5l-114 39q-30 9 -17 41z" />
<glyph unicode="&#xea;" horiz-adv-x="1163" d="M92 532q0 273 142.5 421.5t388.5 148.5q108 0 195.5 -32.5t144 -89.5t86.5 -131.5t30 -160.5q0 -113 -54.5 -173t-184.5 -60h-439q4 -123 69 -174.5t177 -51.5q118 0 252 56q25 10 34 6.5t17 -21.5l64 -147q12 -30 -19 -49q-70 -46 -177 -71.5t-200 -25.5 q-268 0 -397 134.5t-129 420.5zM201.5 1246.5q0.5 9.5 11.5 25.5l268 280q61 64 121 64q43 0 72 -14.5t61 -49.5l273 -278q16 -18 15 -28.5t-17 -26.5l-60 -58q-13 -11 -25 -10t-32 14l-285 201l-274 -205q-27 -19 -56 4l-61 58q-12 14 -11.5 23.5zM408 649h383 q-2 100 -42.5 153.5t-142.5 53.5q-83 0 -136.5 -57t-61.5 -150z" />
<glyph unicode="&#xeb;" horiz-adv-x="1163" d="M92 532q0 273 142.5 421.5t388.5 148.5q108 0 195.5 -32.5t144 -89.5t86.5 -131.5t30 -160.5q0 -113 -54.5 -173t-184.5 -60h-439q4 -123 69 -174.5t177 -51.5q118 0 252 56q25 10 34 6.5t17 -21.5l64 -147q12 -30 -19 -49q-70 -46 -177 -71.5t-200 -25.5 q-268 0 -397 134.5t-129 420.5zM252 1374q0 61 45.5 106.5t105.5 45.5q61 0 107.5 -45.5t46.5 -106.5q0 -60 -47 -104.5t-107 -44.5t-105.5 44.5t-45.5 104.5zM408 649h383q-2 100 -42.5 153.5t-142.5 53.5q-83 0 -136.5 -57t-61.5 -150zM672 1374q0 61 45.5 106.5 t107.5 45.5q61 0 106.5 -45t45.5 -107q0 -60 -46 -104.5t-106 -44.5q-62 0 -107.5 44.5t-45.5 104.5z" />
<glyph unicode="&#xec;" horiz-adv-x="643" d="M25.5 1564q3.5 12 19.5 15l213 53q22 4 31 -1.5t16 -20.5l141 -359q7 -21 3 -27.5t-21 -11.5l-113 -41q-15 -5 -25 -1.5t-22 20.5l-237 352q-9 10 -5.5 22zM174 37v1001q0 21 9.5 29t33.5 8h211q28 0 35.5 -7t7.5 -30v-1001q0 -23 -7.5 -30t-35.5 -7h-211q-24 0 -33.5 8 t-9.5 29z" />
<glyph unicode="&#xed;" horiz-adv-x="643" d="M174 37v1001q0 21 9.5 29t33.5 8h211q28 0 35.5 -7t7.5 -30v-1001q0 -23 -7.5 -30t-35.5 -7h-211q-24 0 -33.5 8t-9.5 29zM207 1251l143 357q9 25 25.5 28t38.5 -6l194 -51q34 -9 17 -37l-240 -352q-11 -18 -22 -21.5t-25 2.5l-115 39q-29 9 -16 41z" />
<glyph unicode="&#xee;" horiz-adv-x="643" d="M-77.5 1246.5q0.5 9.5 11.5 25.5l269 280q61 64 121 64q43 0 72 -14.5t61 -49.5l272 -278q16 -18 15 -28.5t-17 -26.5l-59 -58q-24 -19 -58 4l-284 201l-275 -205q-15 -11 -26.5 -10t-28.5 14l-62 58q-12 14 -11.5 23.5zM174 37v1001q0 21 9.5 29t33.5 8h211 q28 0 35.5 -7t7.5 -30v-1001q0 -23 -7.5 -30t-35.5 -7h-211q-24 0 -33.5 8t-9.5 29z" />
<glyph unicode="&#xef;" horiz-adv-x="643" d="M-31 1364q0 61 46 106.5t106 45.5t106.5 -45.5t46.5 -106.5q0 -60 -46.5 -105t-106.5 -45t-106 45t-46 105zM174 37v1001q0 21 9.5 29t33.5 8h211q28 0 35.5 -7t7.5 -30v-1001q0 -23 -7.5 -30t-35.5 -7h-211q-24 0 -33.5 8t-9.5 29zM389 1364q0 61 46 106.5t108 45.5 q61 0 106 -45t45 -107q0 -60 -45.5 -105t-105.5 -45q-62 0 -108 45t-46 105z" />
<glyph unicode="&#xf0;" horiz-adv-x="1222" d="M92 471q0 78 17.5 150.5t55.5 138t93 114t136 77t179 28.5q117 0 205 -37l10 12q-43 129 -135 228l-143 -105q-22 -19 -39 6l-33 47q-15 19 6 37l123 93q-70 60 -147 104q-21 13 -24.5 24.5t5.5 24.5l56 98q11 19 24.5 21t36.5 -8q118 -48 232 -131l137 104 q15 12 25 11.5t20 -13.5l35 -45q10 -14 9 -21t-13 -16l-121 -92q143 -130 215.5 -315t72.5 -396q0 -60 -5.5 -116t-21 -120.5t-40.5 -118.5t-66.5 -106t-96 -88t-133 -57.5t-173.5 -21.5q-114 0 -203.5 28.5t-144.5 75t-90.5 111.5t-49.5 132t-14 142zM399 492 q0 -38 3 -69.5t15 -69t32 -62.5t57 -42.5t88 -17.5q217 0 217 308q0 75 -12 149q-92 51 -191 51q-57 0 -99 -21.5t-65 -58t-34 -78.5t-11 -89z" />
<glyph unicode="&#xf1;" horiz-adv-x="1247" d="M133 37v878q0 74 26.5 113t100.5 53q42 7 138.5 14t158.5 7q291 0 424 -122t133 -409v-534q0 -23 -7.5 -30t-35.5 -7h-213q-24 0 -33.5 8t-9.5 29v553q0 140 -53.5 203t-192.5 63q-82 0 -139 -10v-809q0 -23 -7.5 -30t-35.5 -7h-211q-24 0 -33.5 8t-9.5 29zM169 1300 q-2 10 7 27q87 174 244 174q53 0 142.5 -41t131.5 -41q32 0 54 15.5t43 50.5q12 21 18.5 24t24.5 -4l102 -35q19 -6 22 -15.5t-6 -29.5q-42 -95 -99.5 -146.5t-143.5 -51.5q-50 0 -144.5 42t-142.5 42q-54 0 -96 -64q-12 -19 -22 -23t-25 5l-91 51q-17 10 -19 20z" />
<glyph unicode="&#xf2;" horiz-adv-x="1218" d="M92 539q0 264 137 413.5t379 149.5q253 0 385.5 -147t132.5 -412q0 -273 -131.5 -419.5t-390.5 -146.5q-260 0 -386 145t-126 417zM334.5 1564q3.5 12 19.5 15l213 53q22 4 31 -1.5t16 -20.5l142 -359q7 -21 2.5 -27.5t-21.5 -11.5l-112 -41q-15 -5 -25 -1.5t-22 20.5 l-238 352q-9 10 -5.5 22zM399 543q0 -157 49.5 -235.5t157.5 -78.5t159.5 84.5t51.5 223.5q0 313 -205 313q-105 0 -159 -82t-54 -225z" />
<glyph unicode="&#xf3;" horiz-adv-x="1218" d="M92 539q0 264 137 413.5t379 149.5q253 0 385.5 -147t132.5 -412q0 -273 -131.5 -419.5t-390.5 -146.5q-260 0 -386 145t-126 417zM399 543q0 -157 49.5 -235.5t157.5 -78.5t159.5 84.5t51.5 223.5q0 313 -205 313q-105 0 -159 -82t-54 -225zM487 1251l144 357 q9 25 25 28t38 -6l195 -51q34 -9 16 -37l-239 -352q-11 -18 -22.5 -21.5t-25.5 2.5l-114 39q-30 9 -17 41z" />
<glyph unicode="&#xf4;" horiz-adv-x="1218" d="M92 539q0 264 137 413.5t379 149.5q253 0 385.5 -147t132.5 -412q0 -273 -131.5 -419.5t-390.5 -146.5q-260 0 -386 145t-126 417zM209.5 1246.5q0.5 9.5 11.5 25.5l268 280q61 64 121 64q43 0 72 -14.5t61 -49.5l273 -278q16 -18 15 -28.5t-17 -26.5l-60 -58 q-13 -11 -25 -10t-32 14l-285 201l-274 -205q-15 -11 -26.5 -10t-28.5 14l-62 58q-12 14 -11.5 23.5zM399 543q0 -157 49.5 -235.5t157.5 -78.5t159.5 84.5t51.5 223.5q0 313 -205 313q-105 0 -159 -82t-54 -225z" />
<glyph unicode="&#xf5;" horiz-adv-x="1218" d="M92 539q0 264 137 413.5t379 149.5q253 0 385.5 -147t132.5 -412q0 -273 -131.5 -419.5t-390.5 -146.5q-260 0 -386 145t-126 417zM220 1312q-2 10 7 27q87 174 244 174q53 0 142.5 -40.5t131.5 -40.5q58 0 97 65q12 21 18 24t25 -3l102 -35q19 -6 22 -15.5t-5 -29.5 q-42 -95 -100 -147t-144 -52q-50 0 -145 42t-142 42q-55 0 -96 -63q-12 -19 -22 -23.5t-25 4.5l-90 51q-18 10 -20 20zM399 543q0 -157 49.5 -235.5t157.5 -78.5t159.5 84.5t51.5 223.5q0 313 -205 313q-105 0 -159 -82t-54 -225z" />
<glyph unicode="&#xf6;" horiz-adv-x="1218" d="M92 539q0 264 137 413.5t379 149.5q253 0 385.5 -147t132.5 -412q0 -273 -131.5 -419.5t-390.5 -146.5q-260 0 -386 145t-126 417zM246 1374q0 61 45.5 106.5t105.5 45.5q61 0 107.5 -45.5t46.5 -106.5q0 -60 -47 -104.5t-107 -44.5t-105.5 44.5t-45.5 104.5zM399 543 q0 -157 49.5 -235.5t157.5 -78.5t159.5 84.5t51.5 223.5q0 313 -205 313q-105 0 -159 -82t-54 -225zM666 1374q0 61 45.5 106.5t107.5 45.5q61 0 106.5 -45t45.5 -107q0 -60 -46 -104.5t-106 -44.5q-62 0 -107.5 44.5t-45.5 104.5z" />
<glyph unicode="&#xf7;" d="M150 623v163q0 25 7.5 33t30.5 8h961q22 0 30.5 -9t8.5 -32v-161q0 -43 -41 -43h-957q-22 0 -31 9t-9 32zM485 287q0 75 56 128.5t133 53.5q82 0 136 -52t54 -130q0 -77 -55.5 -131t-134.5 -54q-77 0 -133 54t-56 131zM485 1110q0 75 56 127.5t133 52.5q82 0 136 -51.5 t54 -128.5q0 -78 -55 -131t-135 -53q-78 0 -133.5 53t-55.5 131z" />
<glyph unicode="&#xf8;" horiz-adv-x="1218" d="M92 539q0 264 137 413.5t379 149.5q219 0 350 -113l80 92q12 12 19.5 12.5t17.5 -8.5l31 -26q11 -11 11.5 -18t-9.5 -19l-88 -98q106 -142 106 -381q0 -273 -131.5 -419.5t-390.5 -146.5q-214 0 -342 103l-82 -90q-20 -20 -35 -4l-30 26q-19 16 2 37l84 94 q-109 135 -109 396zM399 543q0 -89 19 -160l344 391q-48 76 -150 76q-105 0 -159 -82t-54 -225zM457 295q51 -66 149 -66q108 0 159.5 84.5t51.5 223.5q0 88 -16 145z" />
<glyph unicode="&#xf9;" horiz-adv-x="1228" d="M133 508v530q0 24 8 31.5t35 7.5h213q23 0 33 -8.5t10 -30.5v-549q0 -73 8.5 -119t32.5 -82t69.5 -51.5t116.5 -15.5q69 0 140 10v807q0 24 8 31.5t35 7.5h211q23 0 33 -8.5t10 -30.5v-874q0 -72 -28.5 -113t-98.5 -55q-45 -9 -137 -15t-158 -6q-295 0 -418 121t-123 412 zM336.5 1564q3.5 12 19.5 15l213 53q22 4 31 -1.5t16 -20.5l142 -359q7 -21 2.5 -27.5t-21.5 -11.5l-112 -41q-15 -5 -25 -1.5t-22 20.5l-238 352q-9 10 -5.5 22z" />
<glyph unicode="&#xfa;" horiz-adv-x="1228" d="M133 508v530q0 24 8 31.5t35 7.5h213q23 0 33 -8.5t10 -30.5v-549q0 -73 8.5 -119t32.5 -82t69.5 -51.5t116.5 -15.5q69 0 140 10v807q0 24 8 31.5t35 7.5h211q23 0 33 -8.5t10 -30.5v-874q0 -72 -28.5 -113t-98.5 -55q-45 -9 -137 -15t-158 -6q-295 0 -418 121t-123 412 zM494 1251l143 357q9 25 25 28t38 -6l195 -51q34 -9 16 -37l-239 -352q-11 -18 -22 -21.5t-25 2.5l-115 39q-29 9 -16 41z" />
<glyph unicode="&#xfb;" horiz-adv-x="1228" d="M133 508v530q0 24 8 31.5t35 7.5h213q23 0 33 -8.5t10 -30.5v-549q0 -73 8.5 -119t32.5 -82t69.5 -51.5t116.5 -15.5q69 0 140 10v807q0 24 8 31.5t35 7.5h211q23 0 33 -8.5t10 -30.5v-874q0 -72 -28.5 -113t-98.5 -55q-45 -9 -137 -15t-158 -6q-295 0 -418 121t-123 412 zM226.5 1246.5q0.5 9.5 11.5 25.5l268 280q61 64 121 64q43 0 72 -14.5t61 -49.5l272 -278q16 -18 15 -28.5t-17 -26.5l-59 -58q-24 -19 -58 4l-284 201l-275 -205q-15 -11 -26.5 -10t-28.5 14l-61 58q-12 14 -11.5 23.5z" />
<glyph unicode="&#xfc;" horiz-adv-x="1228" d="M133 508v530q0 24 8 31.5t35 7.5h213q23 0 33 -8.5t10 -30.5v-549q0 -73 8.5 -119t32.5 -82t69.5 -51.5t116.5 -15.5q69 0 140 10v807q0 24 8 31.5t35 7.5h211q23 0 33 -8.5t10 -30.5v-874q0 -72 -28.5 -113t-98.5 -55q-45 -9 -137 -15t-158 -6q-295 0 -418 121t-123 412 zM272 1376q0 61 46 106.5t106 45.5q61 0 107.5 -45.5t46.5 -106.5q0 -60 -47 -104.5t-107 -44.5t-106 44.5t-46 104.5zM692 1376q0 61 46 106.5t108 45.5q61 0 106 -45t45 -107q0 -60 -45.5 -104.5t-105.5 -44.5q-62 0 -108 44.5t-46 104.5z" />
<glyph unicode="&#xfd;" horiz-adv-x="1144" d="M25 1036q-11 39 26 39h232q31 0 42 -7t17 -30l141 -518q41 -140 86 -190h13l221 704q6 24 16.5 32.5t40.5 8.5h244q35 0 22 -33l-413 -1222q-47 -137 -135 -198.5t-234 -61.5q-115 0 -203 28q-25 6 -31.5 15t-0.5 30l34 162q6 23 15 27t30 -2q54 -10 101 -10 q75 0 113.5 24t62.5 94l24 72q-170 95 -253 352zM485 1251l144 357q9 25 25 28t38 -6l195 -51q34 -9 16 -37l-239 -352q-11 -18 -22.5 -21.5t-25.5 2.5l-114 39q-30 9 -17 41z" />
<glyph unicode="&#xfe;" horiz-adv-x="1236" d="M133 -383v1817q0 22 9.5 31.5t33.5 9.5h213q27 0 35 -9t8 -34v-351q112 17 195 17q113 0 202 -28.5t148 -78.5t97 -121.5t54.5 -153t16.5 -177.5q0 -117 -29.5 -216.5t-87 -176.5t-151 -120.5t-213.5 -43.5q-117 0 -232 24v-389q0 -23 -7.5 -29t-35.5 -6h-213 q-24 0 -33.5 7t-9.5 28zM432 260q86 -22 170 -22q232 0 232 307q0 162 -62 229.5t-184 67.5q-82 0 -156 -23v-559z" />
<glyph unicode="&#xff;" horiz-adv-x="1144" d="M25 1036q-11 39 26 39h232q31 0 42 -7t17 -30l141 -518q41 -140 86 -190h13l221 704q6 24 16.5 32.5t40.5 8.5h244q35 0 22 -33l-413 -1222q-47 -137 -135 -198.5t-234 -61.5q-115 0 -203 28q-25 6 -31.5 15t-0.5 30l34 162q6 23 15 27t30 -2q54 -10 101 -10 q75 0 113.5 24t62.5 94l24 72q-170 95 -253 352zM221 1370q0 61 46 106.5t106 45.5t106.5 -45.5t46.5 -106.5q0 -60 -46.5 -104.5t-106.5 -44.5t-106 44.5t-46 104.5zM641 1370q0 61 46 106.5t108 45.5q61 0 106 -45t45 -107q0 -60 -45.5 -104.5t-105.5 -44.5 q-62 0 -108 44.5t-46 104.5z" />
<glyph unicode="&#x152;" horiz-adv-x="1955" d="M131 715q0 340 167.5 540.5t463.5 200.5q166 0 299 -65q84 43 201 43h565q23 0 29 -8.5t6 -36.5v-183q0 -24 -7 -32.5t-28 -8.5h-492q-78 0 -107.5 -34.5t-29.5 -98.5v-151h563q23 0 30 -8.5t7 -36.5v-168q0 -24 -8 -33.5t-29 -9.5h-563v-228q0 -70 34 -99.5t103 -29.5 h512q23 0 29 -7.5t6 -35.5v-184q0 -23 -7 -32t-28 -9h-583q-118 0 -201 39q-137 -62 -305 -62q-166 0 -288.5 55t-195.5 156t-108 232t-35 295zM457 723q0 -110 15.5 -192.5t51 -146.5t97 -97t147.5 -33q75 0 131 35q-12 35 -12 129v639q0 40 10 78q-53 39 -137 39 q-98 0 -168 -60.5t-102.5 -160.5t-32.5 -230z" />
<glyph unicode="&#x153;" horiz-adv-x="1896" d="M92 539q0 264 137 413.5t379 149.5q120 0 216 -39.5t155 -110.5q137 150 352 150q237 0 358 -119t121 -344q0 -101 -37.5 -142.5t-113.5 -41.5h-524q4 -123 68 -174.5t177 -51.5q57 0 126.5 16.5t115.5 37.5q24 7 30.5 3.5t14.5 -22.5l64 -139q8 -19 6 -30t-15 -21 q-68 -49 -171.5 -73t-200.5 -24q-264 0 -381 140q-128 -140 -365 -140q-260 0 -386 145t-126 417zM399 543q0 -157 49.5 -235.5t157.5 -78.5t159.5 84.5t51.5 223.5q0 313 -205 313q-105 0 -159 -82t-54 -225zM1141 645h383q-2 100 -43.5 155.5t-141.5 55.5 q-83 0 -137.5 -59t-60.5 -152z" />
<glyph unicode="&#x178;" horiz-adv-x="1280" d="M19 1422q7 14 28 14h258q28 0 40.5 -9.5t21.5 -35.5l137 -285l131 -293h12l135 303l136 281q9 21 21 30t34 9h260q43 0 24 -37l-456 -871v-487q0 -24 -8.5 -32.5t-36.5 -8.5h-224q-23 0 -33 9.5t-10 31.5v483l-469 873q-8 11 -1 25zM276 1677q0 61 46 106.5t106 45.5 q61 0 107.5 -45.5t46.5 -106.5q0 -60 -47 -104.5t-107 -44.5t-106 44.5t-46 104.5zM696 1677q0 61 46 106.5t108 45.5q61 0 106 -45t45 -107q0 -60 -45.5 -104.5t-105.5 -44.5q-62 0 -108 44.5t-46 104.5z" />
<glyph unicode="&#x2c6;" horiz-adv-x="1200" d="M191.5 1246.5q0.5 9.5 11.5 25.5l268 280q61 64 121 64q43 0 72 -14.5t61 -49.5l272 -278q16 -18 15 -28.5t-17 -26.5l-59 -58q-13 -11 -25 -10t-32 14l-285 201l-275 -205q-15 -11 -26.5 -10t-28.5 14l-61 58q-12 14 -11.5 23.5z" />
<glyph unicode="&#x2dc;" horiz-adv-x="1189" d="M202 1290q-2 10 7 27q87 174 244 174q53 0 142.5 -41t131.5 -41q31 0 53 15.5t43 50.5q12 21 18.5 24t24.5 -4l103 -35q19 -6 22 -15.5t-6 -29.5q-42 -95 -99.5 -146.5t-144.5 -51.5q-51 0 -144.5 41.5t-141.5 41.5q-56 0 -97 -63q-12 -19 -22 -23t-25 5l-90 51 q-17 10 -19 20z" />
<glyph unicode="&#x2000;" horiz-adv-x="976" />
<glyph unicode="&#x2001;" horiz-adv-x="1952" />
<glyph unicode="&#x2002;" horiz-adv-x="976" />
<glyph unicode="&#x2003;" horiz-adv-x="1952" />
<glyph unicode="&#x2004;" horiz-adv-x="650" />
<glyph unicode="&#x2005;" horiz-adv-x="488" />
<glyph unicode="&#x2006;" horiz-adv-x="325" />
<glyph unicode="&#x2007;" horiz-adv-x="325" />
<glyph unicode="&#x2008;" horiz-adv-x="244" />
<glyph unicode="&#x2009;" horiz-adv-x="390" />
<glyph unicode="&#x200a;" horiz-adv-x="108" />
<glyph unicode="&#x2010;" horiz-adv-x="813" d="M104 514v184q0 26 7 34.5t30 8.5h521q23 0 29.5 -8t6.5 -35v-184q0 -24 -7.5 -33.5t-28.5 -9.5h-521q-21 0 -29 9.5t-8 33.5z" />
<glyph unicode="&#x2011;" horiz-adv-x="813" d="M104 514v184q0 26 7 34.5t30 8.5h521q23 0 29.5 -8t6.5 -35v-184q0 -24 -7.5 -33.5t-28.5 -9.5h-521q-21 0 -29 9.5t-8 33.5z" />
<glyph unicode="&#x2012;" horiz-adv-x="813" d="M104 514v184q0 26 7 34.5t30 8.5h521q23 0 29.5 -8t6.5 -35v-184q0 -24 -7.5 -33.5t-28.5 -9.5h-521q-21 0 -29 9.5t-8 33.5z" />
<glyph unicode="&#x2013;" horiz-adv-x="1024" d="M43 541v129q0 23 9.5 33t31.5 10h856q22 0 31.5 -10t9.5 -33v-129q0 -27 -8.5 -35t-32.5 -8h-856q-24 0 -32.5 8t-8.5 35z" />
<glyph unicode="&#x2014;" horiz-adv-x="2048" d="M41 541v129q0 23 9.5 33t31.5 10h1884q22 0 31.5 -10t9.5 -33v-129q0 -27 -8.5 -35t-32.5 -8h-1884q-24 0 -32.5 8t-8.5 35z" />
<glyph unicode="&#x2018;" horiz-adv-x="694" d="M130 894q-9 15 1 32l148 489q6 25 15 34t30 9h110q26 0 37.5 -9.5t9.5 -29.5l-28 -493q-3 -47 -50 -47h-233q-31 0 -40 15z" />
<glyph unicode="&#x2019;" horiz-adv-x="694" d="M174 918l31 493q2 24 11 35.5t36 11.5h233q57 0 41 -47l-147 -489q-8 -26 -17 -34.5t-30 -8.5h-109q-28 0 -39.5 9.5t-9.5 29.5z" />
<glyph unicode="&#x201a;" horiz-adv-x="577" d="M131 -229l25 516q2 25 12 37t37 12h233q31 0 39 -13t4 -36l-147 -514q-6 -25 -14.5 -33t-30.5 -8h-111q-27 0 -37.5 9t-9.5 30z" />
<glyph unicode="&#x201c;" horiz-adv-x="1052" d="M130 894q-9 15 1 32l148 489q6 25 15 34t30 9h110q26 0 37.5 -9.5t9.5 -29.5l-28 -493q-3 -47 -50 -47h-233q-31 0 -40 15zM575 926l150 489q6 25 14.5 34t30.5 9h111q26 0 37.5 -9.5t9.5 -29.5l-29 -493q-2 -23 -11.5 -35t-35.5 -12h-236q-53 0 -41 47z" />
<glyph unicode="&#x201d;" horiz-adv-x="1052" d="M131 918l29 493q2 23 11.5 35t35.5 12h233q57 0 41 -47l-147 -489q-6 -25 -15 -34t-32 -9h-109q-27 0 -38 9t-9 30zM575 918l31 493q0 47 49 47h232q57 0 41 -47l-148 -489q-8 -26 -16 -34.5t-29 -8.5h-110q-53 0 -50 39z" />
<glyph unicode="&#x201e;" horiz-adv-x="1026" d="M131 -233l25 524q2 23 12 34t37 11h233q31 0 39 -11.5t4 -33.5l-147 -522q-6 -24 -14 -30.5t-31 -6.5h-111q-27 0 -37.5 7.5t-9.5 27.5zM557 -233l27 524q2 23 11.5 34t35.5 11h233q31 0 39.5 -12t3.5 -33l-145 -522q-8 -24 -16 -30.5t-29 -6.5h-111q-27 0 -38.5 7.5 t-10.5 27.5z" />
<glyph unicode="&#x2022;" horiz-adv-x="913" d="M174 639q0 122 85 207.5t208 85.5q124 0 210.5 -85.5t86.5 -207.5t-86.5 -207.5t-210.5 -85.5q-123 0 -208 85t-85 208z" />
<glyph unicode="&#x2026;" horiz-adv-x="1755" d="M117 160q0 76 55 130t133 54q82 0 136.5 -53t54.5 -131q0 -77 -55 -131t-136 -54q-78 0 -133 53.5t-55 131.5zM692 160q0 76 56 130t133 54q81 0 135.5 -53t54.5 -131q0 -77 -55.5 -131t-134.5 -54q-77 0 -133 54t-56 131zM1257 160q0 77 56 130.5t135 53.5q80 0 134 -53 t54 -131q0 -77 -54.5 -131t-133.5 -54q-80 0 -135.5 53.5t-55.5 131.5z" />
<glyph unicode="&#x202f;" horiz-adv-x="390" />
<glyph unicode="&#x2039;" horiz-adv-x="772" d="M119 520q0 39 33 92l180 306q19 28 35.5 37.5t56.5 9.5h188q19 0 26 -13t-3 -32l-238 -402l252 -416q13 -22 5.5 -33.5t-31.5 -11.5h-187q-40 0 -57.5 9.5t-30.5 33.5l-198 332q-31 60 -31 88z" />
<glyph unicode="&#x203a;" horiz-adv-x="772" d="M106.5 68.5q-7.5 11.5 4.5 33.5l254 416l-238 402q-10 19 -3 32t26 13h188q40 0 57 -9.5t33 -37.5l182 -306q33 -60 33 -92q0 -24 -33 -88l-196 -332q-13 -23 -31 -33t-57 -10h-189q-23 0 -30.5 11.5z" />
<glyph unicode="&#x205f;" horiz-adv-x="488" />
<glyph unicode="&#x20ac;" d="M84 522v88q0 15 1 21.5t8 11t22 4.5h870q20 0 24.5 -7.5t4.5 -29.5v-88q0 -16 -1 -22t-7.5 -10.5t-20.5 -4.5h-448q51 -237 311 -237q56 0 110 10t84.5 20.5t87.5 32.5q28 10 39.5 6.5t20.5 -22.5l76 -156q10 -24 5 -35.5t-24 -23.5q-165 -103 -434 -103q-524 0 -600 508 h-98q-20 0 -25.5 7.5t-5.5 29.5zM84 776v88q0 15 1 21.5t8 11t22 4.5h108q46 228 209.5 363t394.5 135q214 0 371 -78q24 -12 28 -26t-7 -40l-66 -153q-9 -20 -20 -24t-39 5q-128 45 -254 45q-107 0 -182.5 -60.5t-108.5 -166.5h436q20 0 24.5 -7.5t4.5 -29.5v-88 q0 -16 -1 -22t-7.5 -10.5t-20.5 -4.5h-870q-20 0 -25.5 7.5t-5.5 29.5z" />
<glyph unicode="&#x2122;" horiz-adv-x="1787" d="M66 1305v102q0 17 6.5 23t21.5 6h621q15 0 21.5 -6t6.5 -23v-102q0 -27 -28 -27h-213v-627q0 -15 -6 -20.5t-25 -5.5h-141q-29 0 -29 26v627h-207q-28 0 -28 27zM803 651v703q0 80 90 80h70q38 0 58 -13t34 -45l106 -264l72 -182h6q4 12 37.5 94.5t36.5 91.5l104 258 q14 33 36.5 46.5t64.5 13.5h59q43 0 65.5 -17.5t22.5 -62.5v-703q0 -14 -7 -18t-22 -4h-133q-16 0 -22 4t-6 18v463h-9l-47 -141l-76 -195q-12 -31 -27 -42t-44 -11h-72q-30 0 -44 11t-26 42l-73 185l-51 145h-9v-457q0 -14 -5.5 -18t-20.5 -4h-140q-15 0 -21.5 4t-6.5 18z " />
<glyph unicode="&#xe000;" horiz-adv-x="1075" d="M0 1075h1075v-1075h-1075v1075z" />
<glyph unicode="&#xfb01;" horiz-adv-x="1290" d="M25 887v117q0 20 6 28.5t28 14.5l146 34v66q0 385 442 385q208 -6 363 -47q34 -9 26 -47l-30 -144q-3 -18 -12.5 -24.5t-30.5 -3.5q-145 24 -258 24q-111 0 -157 -39.5t-46 -117.5v-58h612q28 0 35.5 -7.5t7.5 -29.5v-1001q0 -23 -8.5 -30t-36.5 -7h-211q-24 0 -33.5 8 t-9.5 29v815h-356v-815q0 -23 -9.5 -30t-31.5 -7h-213q-24 0 -33.5 7t-9.5 32v813h-146q-16 0 -23.5 5t-9 11.5t-1.5 18.5z" />
<glyph unicode="&#xfb02;" horiz-adv-x="1402" d="M25 889v115q0 20 6 28.5t28 14.5l146 34v68q0 385 442 385q189 -6 320 -37l161 33q24 2 33.5 -6t9.5 -31v-1165q0 -53 16.5 -74t61.5 -21q29 0 74 5q20 4 26 0.5t9 -21.5l20 -160q3 -21 -2 -28.5t-28 -16.5q-79 -32 -215 -32q-131 0 -195 63t-64 221v1010q-95 14 -169 14 q-111 0 -157 -38t-46 -115v-60h229q23 0 28 -6.5t5 -26.5v-147q0 -16 -1 -22.5t-8.5 -11.5t-23.5 -5h-229v-819q0 -23 -9.5 -30t-31.5 -7h-213q-24 0 -33.5 7t-9.5 32v817h-146q-16 0 -23.5 5t-9 11t-1.5 17z" />
<glyph unicode="&#xfb03;" horiz-adv-x="1882" d="M20 885v116q0 20 6.5 28.5t28.5 14.5l146 35q0 36 1 65.5t1 33.5q0 70 23.5 127.5t74 104t138 72t206.5 25.5q155 0 311 -37q110 76 306 76q177 -5 337 -43q20 -4 26 -12.5t3 -26.5l-33 -164q-3 -17 -14 -20t-29 2q-184 23 -233 23q-111 0 -158 -40t-47 -118v-72h590 q28 0 35.5 -8t7.5 -31v-1001q0 -23 -7.5 -29t-35.5 -6h-213q-23 0 -32 7t-9 28v817h-336v-817q0 -22 -8.5 -28.5t-30.5 -6.5h-215q-22 0 -31.5 7t-9.5 30v815h-321v-817q0 -22 -9.5 -28.5t-31.5 -6.5h-213q-24 0 -33.5 7t-9.5 30v815h-146q-23 0 -29 7.5t-6 25.5zM498 1075 h321v86q0 55 8 96q-70 9 -149 9q-98 0 -139 -38t-41 -108v-45z" />
<glyph unicode="&#xfb04;" horiz-adv-x="1980" d="M20 885v116q0 20 6.5 28.5t28.5 14.5l146 35q0 36 1 66.5t1 34.5q0 70 23.5 128t73.5 104.5t138 72.5t207 26q185 -6 311 -36q104 73 318 73q45 0 138 -9.5t163 -22.5l131 26q43 10 43 -35v-1181q0 -53 16 -74t60 -21q26 0 76 5q19 2 25 -2t9 -23l19 -156q3 -20 -2.5 -28 t-26.5 -17q-89 -30 -215 -30q-132 0 -195 62t-63 220v1026q-103 15 -147 15q-100 0 -142.5 -38.5t-42.5 -115.5v-74h195q23 0 28 -7.5t5 -27.5v-151q0 -15 -1 -21.5t-8.5 -11t-23.5 -4.5h-201v-817q0 -22 -8.5 -28.5t-30.5 -6.5h-215q-22 0 -31.5 7t-9.5 30v815h-321v-817 q0 -22 -9.5 -28.5t-31.5 -6.5h-213q-24 0 -33.5 7t-9.5 30v815h-146q-23 0 -29 7.5t-6 25.5zM498 1075h321v90q0 56 8 97q-118 8 -153 8q-97 -3 -136.5 -39.5t-39.5 -106.5v-49z" />
</font>
</defs>
</svg>
